<svg width="230" height="174" viewBox="0 0 230 174" fill="none" xmlns="http://www.w3.org/2000/svg">
<path d="M97.888 150.034C126.167 150.034 149.092 148.163 149.092 145.854C149.092 143.545 126.167 141.674 97.888 141.674C69.6089 141.674 46.6842 143.545 46.6842 145.854C46.6842 148.163 69.6089 150.034 97.888 150.034Z" fill="#E6E7E8"/>
<path d="M183.316 106.61H146.907V136.274H183.316V106.61Z" fill="white"/>
<path d="M183.316 136.568H146.907C146.83 136.568 146.757 136.537 146.703 136.483C146.649 136.429 146.619 136.356 146.619 136.28V106.61C146.619 106.534 146.649 106.461 146.703 106.407C146.757 106.353 146.83 106.323 146.907 106.323H183.316C183.391 106.324 183.464 106.355 183.517 106.408C183.571 106.462 183.602 106.534 183.603 106.61V136.28C183.602 136.356 183.571 136.428 183.517 136.482C183.464 136.535 183.391 136.566 183.316 136.568ZM147.194 135.993H183.028V106.898H147.2L147.194 135.993Z" fill="#D1D3D4"/>
<path d="M183.316 110.71H146.907C146.83 110.71 146.757 110.68 146.703 110.626C146.649 110.572 146.619 110.499 146.619 110.423C146.619 110.346 146.649 110.273 146.703 110.219C146.757 110.165 146.83 110.135 146.907 110.135H183.316C183.392 110.135 183.465 110.165 183.519 110.219C183.573 110.273 183.603 110.346 183.603 110.423C183.602 110.498 183.571 110.571 183.517 110.624C183.464 110.678 183.391 110.709 183.316 110.71Z" fill="#D1D3D4"/>
<path d="M82.9955 51.1859C82.2102 51.2387 81.4267 51.0601 80.7419 50.6723C80.0571 50.2844 79.501 49.7043 79.1425 49.0037C78.7839 48.3031 78.6386 47.5128 78.7246 46.7305C78.8105 45.9482 79.1239 45.2082 79.626 44.6022C77.4295 43.5902 76.268 40.9912 76.429 38.5819C76.59 36.1727 77.8607 33.9819 79.4477 32.1304C80.753 30.6182 82.3917 29.2554 84.3525 28.8817C84.7236 28.8447 85.0855 28.7435 85.422 28.5827C85.6868 28.3964 85.9165 28.1647 86.1005 27.8984C87.5322 26.0699 89.2975 24.3909 91.5055 23.6549C93.7135 22.9189 96.416 23.3387 97.8937 25.1384C98.6324 24.4971 99.5484 24.0953 100.52 23.986C101.493 23.8767 102.475 24.0651 103.338 24.5263C104.2 24.9876 104.902 25.6999 105.351 26.569C105.8 27.438 105.975 28.423 105.852 29.3934C107.407 29.6231 108.866 30.2889 110.059 31.3137C111.252 32.3385 112.129 33.6803 112.591 35.1837C113.413 38.2082 112.016 41.7617 109.227 43.1934C108.905 43.3601 108.52 43.5786 108.531 43.9352C108.563 44.1503 108.659 44.3508 108.807 44.5102C109.704 45.7924 109.256 47.6497 108.232 48.8112C107.209 49.9727 105.679 50.5879 104.207 51.1744C104.535 51.5027 104.753 51.924 104.832 52.3809C104.911 52.8378 104.848 53.308 104.65 53.7274C104.223 54.567 103.56 55.2628 102.741 55.7284C99.544 57.7927 95.588 57.1487 92.0057 57.2234C88.6995 57.2924 85.4162 55.1822 83.2255 52.7902C82.8 52.3359 82.4607 51.5079 82.9955 51.1859Z" fill="white"/>
<path d="M95.9675 57.5512C95.3925 57.5512 94.8175 57.5512 94.2885 57.5512C93.541 57.5512 92.759 57.5167 92.023 57.5512C89.0215 57.6029 85.698 55.9182 83.0185 53.0259C82.83 52.8368 82.6818 52.6114 82.5829 52.3633C82.4841 52.1152 82.4367 51.8497 82.4435 51.5827C82.4403 51.5617 82.4403 51.5404 82.4435 51.5194C81.6694 51.4823 80.9198 51.236 80.2744 50.8069C79.629 50.3778 79.1119 49.7818 78.7781 49.0824C78.4443 48.3829 78.3062 47.6061 78.3786 46.8344C78.4509 46.0628 78.731 45.3252 79.189 44.6999C77.2053 43.6074 75.969 41.1407 76.1415 38.5647C76.2853 36.3624 77.326 34.1372 79.2293 31.9407C80.8853 30.0317 82.5413 28.9392 84.3008 28.5999L84.4963 28.5654C84.7729 28.5546 85.0423 28.474 85.2795 28.3313C85.5167 28.1886 85.7141 27.9883 85.8533 27.7489C87.6588 25.4489 89.47 24.0344 91.4135 23.3847C93.8113 22.5854 96.439 23.1432 97.9283 24.7359C98.712 24.1308 99.6544 23.7658 100.641 23.685C101.628 23.6043 102.617 23.8112 103.489 24.2808C104.361 24.7505 105.078 25.4627 105.553 26.3312C106.029 27.1998 106.242 28.1875 106.168 29.1749C107.722 29.4557 109.168 30.1575 110.351 31.2038C111.533 32.2502 112.405 33.601 112.873 35.1089C113.747 38.3232 112.2 42.0089 109.359 43.4522C109.072 43.5959 108.813 43.7569 108.819 43.9294C108.847 44.0488 108.905 44.1593 108.986 44.2514L109.037 44.3262C110.061 45.7752 109.48 47.8049 108.416 48.9779C107.364 50.0107 106.095 50.7964 104.702 51.2779C104.954 51.6547 105.106 52.0891 105.144 52.5407C105.182 52.9922 105.105 53.446 104.92 53.8597C104.48 54.7461 103.785 55.481 102.925 55.9699C100.792 57.3499 98.3768 57.5512 95.9675 57.5512ZM92.6613 56.9302C93.2075 56.9302 93.7595 56.9302 94.3 56.9302C97.175 56.9877 100.136 57.0509 102.592 55.4639C103.365 55.0329 103.992 54.38 104.391 53.5894C104.57 53.2232 104.63 52.8104 104.563 52.4085C104.496 52.0066 104.305 51.6356 104.018 51.3469C103.98 51.315 103.951 51.2738 103.934 51.2275C103.917 51.1812 103.912 51.1312 103.92 51.0824C103.928 51.0329 103.948 50.9863 103.98 50.9471C104.011 50.9078 104.052 50.8772 104.098 50.8582C105.444 50.3177 106.973 49.7082 107.991 48.5582C108.905 47.5519 109.417 45.8269 108.566 44.6194L108.514 44.5562C108.357 44.3755 108.261 44.1503 108.238 43.9122C108.238 43.3372 108.784 43.0612 109.089 42.9059C111.7 41.5604 113.114 38.1909 112.309 35.2239C111.854 33.782 111.002 32.4973 109.851 31.5169C108.7 30.5366 107.296 29.9003 105.8 29.6809C105.726 29.6696 105.659 29.6295 105.614 29.5693C105.568 29.5091 105.549 29.4335 105.559 29.3589C105.671 28.448 105.507 27.5243 105.085 26.7088C104.664 25.8932 104.006 25.224 103.198 24.7889C102.39 24.3537 101.469 24.1729 100.557 24.2702C99.6438 24.3674 98.7818 24.7382 98.0835 25.3339C98.0546 25.3594 98.0209 25.3786 97.9843 25.3905C97.9477 25.4023 97.9091 25.4066 97.8708 25.4029C97.8328 25.4001 97.7958 25.3894 97.7622 25.3716C97.7286 25.3538 97.699 25.3292 97.6753 25.2994C96.3815 23.7239 93.8803 23.1489 91.6033 23.9137C89.769 24.5232 88.044 25.8802 86.3305 28.0594C86.1275 28.3544 85.8722 28.6097 85.5773 28.8127C85.2737 28.9743 84.9418 29.0758 84.5998 29.1117L84.4158 29.1462C82.7885 29.4624 81.236 30.4917 79.6663 32.2972C77.8493 34.3959 76.8603 36.5119 76.7223 38.5819C76.5555 41.0659 77.7975 43.4234 79.7525 44.3319C79.7923 44.3504 79.8274 44.3776 79.8552 44.4114C79.8831 44.4453 79.903 44.4849 79.9135 44.5274C79.9227 44.5707 79.9218 44.6156 79.9108 44.6585C79.8999 44.7014 79.8791 44.7411 79.8503 44.7747C79.3761 45.335 79.0783 46.0231 78.9943 46.7523C78.9104 47.4815 79.044 48.2193 79.3784 48.8727C79.7128 49.5261 80.233 50.066 80.8736 50.4245C81.5142 50.7829 82.2464 50.9438 82.9783 50.8869C83.0438 50.8803 83.1095 50.8967 83.1642 50.9335C83.2188 50.9703 83.2588 51.025 83.2773 51.0882C83.2968 51.1499 83.2949 51.2164 83.272 51.2769C83.249 51.3375 83.2063 51.3885 83.1508 51.4217C83.1152 51.4414 83.0851 51.4695 83.0631 51.5036C83.041 51.5377 83.0277 51.5767 83.0243 51.6172C83.0341 51.9842 83.1867 52.3328 83.4498 52.5889C85.9913 55.3604 89.1998 56.9819 92.0115 56.9244L92.6613 56.9302Z" fill="#231F20"/>
<path d="M124.062 135.395C125.379 135.395 135.194 136.458 139.788 138.741C144.382 141.024 145.377 141.202 144.446 144.284C143.514 147.366 135.424 148.125 129.266 146.964C125.299 146.148 121.474 144.757 117.909 142.835L124.062 135.395Z" fill="white"/>
<path d="M135.073 147.786C133.108 147.778 131.149 147.586 129.22 147.211C125.226 146.389 121.374 144.991 117.783 143.06C117.75 143.039 117.721 143.013 117.698 142.981C117.675 142.949 117.659 142.914 117.651 142.876C117.644 142.838 117.646 142.799 117.656 142.763C117.666 142.726 117.684 142.692 117.708 142.663L123.861 135.222C123.883 135.192 123.913 135.167 123.947 135.15C123.981 135.133 124.018 135.124 124.056 135.125H124.114C125.718 135.125 135.303 136.217 139.903 138.5L140.938 139.012C144.624 140.817 145.619 141.312 144.699 144.359C144.118 146.291 140.335 147.786 135.073 147.786ZM118.318 142.755C121.78 144.583 125.483 145.913 129.318 146.705C135.499 147.855 143.342 147.039 144.199 144.21C144.986 141.588 144.417 141.306 140.708 139.489L139.673 138.977C135.286 136.798 125.902 135.688 124.183 135.654L118.318 142.755Z" fill="#231F20"/>
<path d="M125.379 135.366C126.247 135.579 127.003 136.112 127.494 136.858C127.986 137.605 128.177 138.509 128.029 139.391C127.598 142.663 120.681 142.801 120.284 142.841C119.887 142.881 125.379 135.366 125.379 135.366Z" fill="white"/>
<path d="M120.284 143.025C120.233 143.023 120.183 143.009 120.139 142.983C120.094 142.956 120.057 142.92 120.031 142.875C119.945 142.703 119.807 142.438 125.166 135.188C125.197 135.145 125.24 135.113 125.289 135.096C125.338 135.078 125.392 135.076 125.442 135.09C125.471 135.09 128.748 135.912 128.317 139.379C127.88 142.709 121.578 143.002 120.319 143.025H120.284ZM125.459 135.648C123.775 137.948 121.267 141.398 120.641 142.49C122.216 142.415 127.397 141.973 127.748 139.31C127.883 138.531 127.727 137.73 127.309 137.059C126.891 136.387 126.241 135.893 125.482 135.671L125.459 135.648Z" fill="#231F20"/>
<path d="M74.1118 142.858C73.9105 142.962 72.0303 145.405 63.8308 146.383C55.6313 147.36 52.5895 149.126 50.761 144.819C48.9325 140.512 50.186 137.729 54.211 136.499C58.236 135.268 69.3853 134.25 71.5703 136.309C73.7553 138.367 74.1118 142.858 74.1118 142.858Z" fill="white"/>
<path d="M54.809 147.843C52.7792 147.843 51.474 147.165 50.5195 144.922C49.565 142.68 49.4212 140.754 50.117 139.264C50.761 137.884 52.118 136.867 54.142 136.251C57.9255 135.101 69.4197 133.917 71.7542 136.119C73.991 138.224 74.3475 142.651 74.3647 142.835C74.3674 142.884 74.3571 142.932 74.3349 142.976C74.3126 143.019 74.2793 143.056 74.2382 143.082L74.1577 143.151C71.7945 145.302 67.2577 146.239 63.8537 146.642C62.0885 146.854 60.5705 147.102 59.2537 147.32C57.7871 147.604 56.3015 147.779 54.809 147.843ZM65.4235 135.389C61.4847 135.389 56.7122 136.016 54.3087 136.752C52.4227 137.327 51.1692 138.247 50.5942 139.489C49.9617 140.834 50.0997 142.594 51.0025 144.715C52.3537 147.907 54.349 147.59 59.156 146.803C60.5015 146.584 62.031 146.337 63.802 146.124C67.1255 145.727 71.5587 144.819 73.8185 142.76C73.738 142.007 73.2435 138.287 71.3862 136.516C70.5582 135.699 68.195 135.389 65.4235 135.389Z" fill="#231F20"/>
<path d="M76.728 141.099C76.728 141.099 73.0078 144.204 70.5295 143.836C68.0513 143.468 64.6243 142.111 66.0043 139.437C67.3843 136.763 76.268 135.153 76.268 135.153L76.728 141.099Z" fill="white"/>
<path d="M70.955 144.129C70.7991 144.129 70.6434 144.118 70.4893 144.094C68.632 143.818 66.3895 143.025 65.6708 141.616C65.4933 141.255 65.4093 140.856 65.4264 140.454C65.4434 140.052 65.5611 139.661 65.7685 139.316C67.1945 136.545 75.854 134.963 76.222 134.894C76.2582 134.888 76.2953 134.89 76.331 134.899C76.3666 134.907 76.4 134.924 76.429 134.946C76.4581 134.969 76.4823 134.998 76.5001 135.031C76.5179 135.063 76.5289 135.099 76.5325 135.136L76.9925 141.076C76.9957 141.118 76.989 141.16 76.9731 141.199C76.9571 141.238 76.9323 141.272 76.9005 141.3C76.751 141.421 73.4793 144.129 70.955 144.129ZM76.0323 135.469C74.5085 135.768 67.4073 137.281 66.2573 139.558C66.0876 139.828 65.9892 140.137 65.9711 140.456C65.953 140.774 66.0158 141.093 66.1538 141.38C66.7863 142.605 68.8563 143.318 70.587 143.577C72.6973 143.893 75.8655 141.467 76.475 140.984L76.0323 135.469Z" fill="#231F20"/>
<path d="M121.417 115.017C121.417 115.017 117.496 130.312 103.184 133.233C88.872 136.154 81.466 135.383 76.3945 125.723C71.323 116.063 74.6695 110.152 74.6695 110.152L119.836 109.255L121.417 115.017Z" fill="#231F20"/>
<path d="M91.379 135.021C84.479 135.021 79.6893 132.617 76.1358 125.855C71.0528 116.167 74.29 110.256 74.4108 110.008C74.4359 109.965 74.4719 109.929 74.5152 109.904C74.5586 109.878 74.6078 109.865 74.658 109.865L119.824 108.968C119.889 108.964 119.954 108.984 120.006 109.023C120.059 109.061 120.096 109.117 120.112 109.18L121.676 114.93C121.687 114.98 121.687 115.031 121.676 115.08C121.636 115.235 117.547 130.605 103.218 133.509C98.693 134.446 94.7773 135.021 91.379 135.021ZM74.8593 110.434C74.4108 111.383 72.1453 117.006 76.6475 125.591C81.7938 135.366 89.2975 135.78 103.098 132.951C116.57 130.202 120.773 116.144 121.089 115.017L119.6 109.548L74.8593 110.434Z" fill="#231F20"/>
<path d="M71.3 115.155C71.3 115.155 63.8998 91.2346 64.8715 76.2443C65.8433 61.2541 71.415 60.7193 79.0165 59.8741C82.3917 59.4946 100.372 56.8323 107.105 64.7558C113.839 72.6793 125.689 109.79 125.689 109.79L71.3 115.155Z" fill="#68E1FD"/>
<path d="M98.0088 59.9144L96.8588 67.9184C96.8588 67.9184 94.3403 72.0527 89.2975 69.9596C84.2548 67.8666 84.157 64.0084 84.157 64.0084L86.549 49.2194C86.549 49.2194 91.8678 44.4469 94.1045 35.3274C94.1045 35.3274 98.5608 43.1014 105.03 44.8494C105.03 44.8494 104.598 51.3066 103.443 55.3086C102.293 59.1784 98.0893 59.8684 98.0088 59.9144Z" fill="white"/>
<path d="M92 70.8336C91.022 70.8217 90.0563 70.6145 89.1595 70.2241C83.9845 68.0851 83.8465 64.1808 83.8408 64.0141L86.25 49.1733C86.2617 49.1075 86.2939 49.0471 86.342 49.0008C86.3938 48.9548 91.6205 44.1823 93.817 35.2583C93.8328 35.2035 93.8639 35.1544 93.9067 35.1167C93.9495 35.079 94.0022 35.0543 94.0585 35.0456C94.1147 35.0376 94.172 35.0465 94.2232 35.071C94.2743 35.0956 94.3171 35.1347 94.346 35.1836C94.392 35.2641 98.8253 42.8771 105.087 44.5676C105.152 44.5848 105.208 44.6241 105.247 44.6787C105.286 44.7333 105.305 44.7997 105.3 44.8666C105.3 44.9298 104.851 51.4043 103.701 55.3891C102.753 58.6723 99.6763 59.7993 98.2733 60.1443L97.1233 67.9586C97.1179 67.9966 97.1063 68.0336 97.0888 68.0678C96.5221 68.9007 95.7647 69.5863 94.8796 70.0674C93.9944 70.5484 93.0072 70.8111 92 70.8336ZM86.825 49.3573L84.4445 64.0543C84.4445 64.1463 84.617 67.6998 89.4125 69.6951C93.8918 71.5523 96.3125 68.2461 96.5885 67.8148L97.7385 59.8741C97.7438 59.8305 97.7597 59.7888 97.7848 59.7528C97.8098 59.7167 97.8433 59.6873 97.8823 59.6671C97.9352 59.6363 97.9939 59.6167 98.0548 59.6096C99.291 59.3163 102.27 58.2986 103.155 55.2281C104.167 51.7263 104.627 46.2523 104.713 45.0621C99.3083 43.4751 95.3868 37.9033 94.2138 36.0576C92.0288 44.1536 87.446 48.7248 86.825 49.3573Z" fill="#231F20"/>
<path d="M89.6483 49.4436C89.5837 48.6956 89.2768 47.989 88.7743 47.4311C88.2856 46.93 87.7136 46.5175 87.0838 46.2121C86.7571 46.0101 86.39 45.8825 86.0085 45.8384C85.7386 45.841 85.4715 45.8937 85.2208 45.9936C84.6085 46.1889 84.0864 46.5968 83.7487 47.1436C83.5265 47.6075 83.4218 48.119 83.444 48.6329C83.4213 49.189 83.4715 49.7458 83.5935 50.2889C83.7285 50.8312 83.9705 51.341 84.3052 51.7885C84.6399 52.2361 85.0606 52.6123 85.5426 52.895C86.0246 53.1778 86.5583 53.3615 87.1122 53.4353C87.6662 53.5091 88.2293 53.4716 88.7685 53.3249" fill="white"/>
<path d="M87.676 53.733C86.6754 53.7339 85.7032 53.4007 84.9135 52.7861C84.1239 52.1715 83.5622 51.3107 83.3175 50.3405C83.1842 49.7758 83.13 49.1952 83.1565 48.6155C83.1362 48.0555 83.2527 47.499 83.4958 46.994C83.8621 46.3929 84.431 45.9423 85.1 45.7233C85.3861 45.6121 85.69 45.5536 85.997 45.5508C86.423 45.5956 86.8336 45.7351 87.1988 45.959C87.8562 46.2799 88.4533 46.7118 88.964 47.2355C89.5094 47.8414 89.8425 48.6084 89.9128 49.4205C89.9176 49.4965 89.8927 49.5714 89.8433 49.6293C89.794 49.6872 89.724 49.7237 89.6483 49.731C89.5726 49.7344 89.4985 49.709 89.4409 49.6599C89.3833 49.6109 89.3464 49.5417 89.3378 49.4665C89.2813 48.7824 89.0049 48.1349 88.55 47.6208C88.0826 47.1461 87.5358 46.7569 86.9343 46.4708C86.6475 46.2869 86.3234 46.1691 85.9855 46.1258C85.7526 46.1277 85.5222 46.1746 85.307 46.2638C84.7639 46.4315 84.2962 46.7832 83.9845 47.2585C83.7892 47.6832 83.6985 48.1486 83.72 48.6155C83.6924 49.1468 83.7408 49.6792 83.8638 50.1968C83.9903 50.7001 84.2156 51.1733 84.5266 51.5888C84.8376 52.0043 85.2281 52.3538 85.6753 52.6171C86.1226 52.8803 86.6178 53.052 87.132 53.1222C87.6462 53.1923 88.1693 53.1596 88.6708 53.0258C88.7439 53.0064 88.8218 53.0166 88.8875 53.0543C88.9532 53.092 89.0013 53.1541 89.0215 53.227C89.031 53.2637 89.0332 53.3018 89.0279 53.3393C89.0227 53.3767 89.0101 53.4128 88.9908 53.4454C88.9716 53.478 88.9461 53.5064 88.9159 53.5292C88.8856 53.5519 88.8512 53.5684 88.8145 53.5778C88.4437 53.6802 88.0607 53.7324 87.676 53.733Z" fill="#231F20"/>
<path d="M96.876 47.1609C96.876 47.1609 99.1358 51.6171 98.394 52.2554C97.6523 52.8936 95.8698 52.1921 95.8698 52.1921" fill="white"/>
<path d="M97.4682 52.8132C96.8775 52.795 96.2942 52.6764 95.7432 52.4625C95.7081 52.4485 95.6761 52.4278 95.6489 52.4015C95.6218 52.3751 95.6002 52.3437 95.5852 52.309C95.5703 52.2743 95.5623 52.237 95.5618 52.1992C95.5613 52.1614 95.5682 52.1238 95.5822 52.0887C95.6116 52.0188 95.6669 51.9629 95.7366 51.9329C95.8063 51.9028 95.885 51.901 95.956 51.9277C96.3757 52.0887 97.681 52.4625 98.1812 52.037C98.486 51.784 97.727 49.5185 96.6 47.2875C96.5823 47.254 96.5716 47.2173 96.5684 47.1796C96.5652 47.1419 96.5696 47.104 96.5814 47.068C96.5932 47.032 96.6122 46.9988 96.6371 46.9704C96.662 46.9419 96.6924 46.9187 96.7265 46.9022C96.7946 46.8696 96.8727 46.8646 96.9445 46.8882C97.0163 46.9117 97.0762 46.9621 97.1117 47.0287C97.819 48.4317 99.383 51.7667 98.5607 52.474C98.2458 52.708 97.8604 52.8277 97.4682 52.8132Z" fill="#231F20"/>
<path d="M94.0689 46.1537C94.1122 45.622 93.8395 45.1658 93.4596 45.1348C93.0798 45.1039 92.7368 45.5098 92.6934 46.0416C92.6501 46.5733 92.9229 47.0295 93.3027 47.0605C93.6825 47.0914 94.0255 46.6854 94.0689 46.1537Z" fill="#231F20"/>
<path d="M101.193 47.138C101.232 46.6059 100.956 46.1517 100.576 46.1234C100.196 46.0951 99.856 46.5034 99.8164 47.0354C99.7768 47.5675 100.053 48.0217 100.433 48.05C100.813 48.0783 101.153 47.67 101.193 47.138Z" fill="#231F20"/>
<path d="M96.2895 56.3782C95.4103 56.3937 94.5403 56.1964 93.7537 55.8032C92.3795 55.0845 91.4997 53.7102 91.1375 51.7207C91.1309 51.6833 91.1318 51.645 91.1401 51.608C91.1484 51.5709 91.1639 51.5359 91.1858 51.5049C91.2078 51.4738 91.2356 51.4475 91.2678 51.4273C91.2999 51.4071 91.3358 51.3935 91.3732 51.3872C91.4477 51.3753 91.524 51.3926 91.5861 51.4354C91.6482 51.4782 91.6914 51.5434 91.7067 51.6172C92.0287 53.4227 92.8107 54.659 94.0067 55.2915C96.4217 56.5565 99.82 55.027 99.8545 55.0097C99.9239 54.9786 100.003 54.9763 100.074 55.0032C100.145 55.0302 100.203 55.0842 100.234 55.1535C100.25 55.1877 100.259 55.2249 100.261 55.2627C100.262 55.3006 100.256 55.3384 100.243 55.3738C100.229 55.4092 100.209 55.4416 100.183 55.4689C100.157 55.4963 100.125 55.5181 100.09 55.533C98.8893 56.0562 97.5989 56.3431 96.2895 56.3782Z" fill="#231F20"/>
<path d="M98.0087 59.9144C98.0087 59.9144 92.8337 60.3399 90.1657 58.2354C90.1657 58.2354 92.437 65.4229 97.2095 65.3999L98.0087 59.9144Z" fill="#231F20"/>
<path d="M97.175 65.6874C92.2645 65.6874 89.976 58.6207 89.8783 58.3217C89.8613 58.2627 89.8633 58.2 89.884 58.1422C89.9046 58.0844 89.9428 58.0346 89.9933 57.9997C90.0417 57.9619 90.1014 57.9414 90.1629 57.9414C90.2243 57.9414 90.284 57.9619 90.3325 57.9997C92.9028 60.0064 97.9225 59.6212 97.9743 59.6154C98.0171 59.6124 98.06 59.619 98.0999 59.6348C98.1399 59.6505 98.1758 59.675 98.205 59.7065C98.2342 59.7379 98.256 59.7755 98.2688 59.8164C98.2816 59.8574 98.2851 59.9007 98.279 59.9432L97.4798 65.4344C97.4674 65.506 97.43 65.5708 97.3741 65.6172C97.3182 65.6636 97.2476 65.6885 97.175 65.6874ZM90.735 58.9599C91.4653 60.7597 93.5353 64.9284 96.9508 65.1067L97.658 60.2249C96.554 60.2709 93.15 60.3054 90.7465 58.9599H90.735Z" fill="#231F20"/>
<path d="M73.3182 61.2082C62.698 59.8857 52.7275 104.971 58.5235 109.255C67.5625 115.942 95.151 106.811 95.151 106.811L92.391 94.9147C92.391 94.9147 72.4787 95.8635 72.1165 91.7752C71.7542 87.687 83.2427 68.5222 81.6327 65.7277C80.0227 62.9332 73.3182 61.2082 73.3182 61.2082Z" fill="#68E1FD"/>
<path d="M110.4 95.248C110.337 95.2499 110.275 95.2278 110.227 95.1863C110.179 95.1448 110.148 95.0868 110.141 95.0238C108.773 85.4098 105.771 69.3098 104.799 68.3668C104.752 68.3173 104.726 68.2514 104.726 68.183C104.726 68.1146 104.753 68.0489 104.801 67.9998C104.848 67.9507 104.913 67.9219 104.982 67.9196C105.05 67.9172 105.117 67.9415 105.167 67.9873C106.415 69.2005 109.624 87.6695 110.659 94.949C110.669 95.0184 110.651 95.0888 110.608 95.1449C110.566 95.201 110.504 95.238 110.434 95.248H110.4Z" fill="#231F20"/>
<path d="M100.24 117.995L81.9088 112.86L115.575 106.53L133.797 114.166L100.24 117.995Z" fill="white"/>
<path d="M100.24 118.3C100.215 118.305 100.19 118.305 100.165 118.3L81.834 113.125C81.7578 113.125 81.6846 113.094 81.6307 113.041C81.5768 112.987 81.5465 112.914 81.5465 112.837C81.5465 112.761 81.5768 112.688 81.6307 112.634C81.6846 112.58 81.7578 112.55 81.834 112.55L115.5 106.225C115.553 106.208 115.609 106.208 115.661 106.225L133.883 113.861C133.941 113.885 133.99 113.929 134.021 113.984C134.052 114.039 134.064 114.103 134.055 114.166C134.047 114.229 134.017 114.288 133.972 114.333C133.926 114.377 133.866 114.406 133.802 114.413L100.274 118.3H100.24ZM83.1738 112.935L100.263 117.725L132.67 114.028L115.541 106.852L83.1738 112.935Z" fill="#231F20"/>
<path d="M89.424 99.0259C93.449 99.4686 97.1808 99.7561 100.924 101.326C103.063 102.224 105.083 103.383 106.939 104.776C107.884 105.447 108.767 106.201 109.578 107.03C110.222 107.731 110.015 108.416 108.934 108.076C107.677 107.683 106.486 107.101 105.403 106.351C107.993 108.464 110.289 110.915 112.229 113.637C112.447 113.947 112.66 114.39 112.401 114.666C112.142 114.942 111.567 114.666 111.251 114.378L105.564 108.985C107.07 110.284 108.35 111.822 109.354 113.539C109.497 113.786 109.635 114.114 109.486 114.338C109.233 114.758 108.589 114.442 108.244 114.091C106.54 112.371 104.991 110.505 103.615 108.513L106.686 113.113C106.656 113.198 106.611 113.276 106.551 113.344C106.492 113.411 106.42 113.465 106.339 113.504C106.258 113.543 106.171 113.566 106.081 113.571C105.991 113.576 105.902 113.563 105.817 113.533C105.479 113.394 105.186 113.163 104.972 112.866L101.252 108.594L103.448 111.618C103.793 112.09 104.138 112.768 103.742 113.211C103.345 113.654 102.448 113.211 101.942 112.763C99.9065 110.905 97.6714 109.28 95.2775 107.915C94.4093 107.404 93.6675 106.708 92.7073 106.415C91.3273 105.989 89.6023 106.047 88.1648 105.886" fill="white"/>
<path d="M112.125 115.057C111.741 115.013 111.383 114.839 111.113 114.562L109.273 112.837C109.394 113.027 109.514 113.223 109.624 113.412C109.74 113.562 109.814 113.741 109.837 113.929C109.86 114.117 109.832 114.308 109.756 114.482C109.704 114.57 109.633 114.646 109.547 114.702C109.461 114.758 109.363 114.793 109.261 114.804C109.044 114.801 108.829 114.753 108.632 114.663C108.434 114.573 108.256 114.443 108.111 114.281C107.732 113.901 107.364 113.516 107.002 113.131C107.004 113.152 107.004 113.173 107.002 113.194C106.98 113.3 106.936 113.401 106.872 113.489C106.809 113.577 106.728 113.651 106.634 113.706C106.51 113.78 106.372 113.828 106.228 113.847C106.085 113.865 105.939 113.855 105.8 113.815C105.413 113.663 105.078 113.404 104.834 113.067L104.155 112.291C104.24 112.478 104.27 112.686 104.241 112.889C104.213 113.093 104.127 113.284 103.994 113.441C103.912 113.534 103.811 113.609 103.698 113.661C103.585 113.713 103.463 113.742 103.339 113.746C102.739 113.68 102.183 113.398 101.775 112.952C99.7597 111.105 97.5414 109.492 95.1625 108.145C94.8692 107.973 94.5875 107.777 94.3115 107.57C93.8092 107.179 93.2484 106.868 92.6497 106.65C91.6472 106.397 90.619 106.258 89.585 106.236C89.0905 106.208 88.6075 106.179 88.1532 106.133C88.084 106.124 88.0209 106.089 87.9778 106.034C87.9347 105.979 87.9151 105.909 87.9232 105.84C87.9268 105.805 87.9371 105.772 87.9535 105.742C87.97 105.712 87.9922 105.686 88.0189 105.664C88.0457 105.643 88.0764 105.627 88.1093 105.618C88.1423 105.608 88.1767 105.606 88.2107 105.61C88.6592 105.656 89.1307 105.684 89.6137 105.713C90.6905 105.734 91.7614 105.878 92.805 106.144C93.4531 106.381 94.0618 106.715 94.6105 107.133C94.875 107.323 95.1452 107.507 95.427 107.674C97.8384 109.044 100.089 110.68 102.137 112.55C102.448 112.866 102.85 113.077 103.287 113.154C103.341 113.152 103.393 113.139 103.442 113.116C103.49 113.093 103.533 113.061 103.569 113.021C103.879 112.682 103.454 112.021 103.258 111.751L101.062 108.732C101.041 108.705 101.026 108.675 101.018 108.643C101.009 108.611 101.006 108.577 101.011 108.544C101.015 108.511 101.026 108.479 101.042 108.45C101.059 108.421 101.081 108.396 101.108 108.375C101.156 108.328 101.221 108.301 101.289 108.301C101.357 108.301 101.422 108.328 101.47 108.375L105.196 112.648C105.378 112.902 105.627 113.101 105.915 113.223C105.983 113.242 106.054 113.247 106.124 113.238C106.194 113.229 106.262 113.206 106.323 113.171C106.36 113.152 106.391 113.124 106.415 113.09L103.419 108.588C103.381 108.531 103.366 108.461 103.379 108.393C103.392 108.325 103.431 108.265 103.488 108.226C103.546 108.187 103.616 108.172 103.684 108.185C103.752 108.198 103.812 108.238 103.851 108.295C105.221 110.272 106.76 112.127 108.451 113.838C108.638 114.043 108.893 114.174 109.169 114.206C109.192 114.205 109.214 114.198 109.234 114.186C109.253 114.174 109.268 114.157 109.279 114.137C109.342 114.039 109.279 113.855 109.146 113.602C108.454 112.417 107.626 111.318 106.68 110.325L105.397 109.106C105.356 109.056 105.334 108.993 105.335 108.929C105.337 108.865 105.362 108.803 105.406 108.756C105.45 108.708 105.509 108.679 105.573 108.672C105.637 108.666 105.702 108.683 105.754 108.72C106.208 109.111 106.639 109.52 107.053 109.951L111.446 114.12C111.617 114.314 111.852 114.44 112.108 114.476C112.131 114.477 112.154 114.472 112.175 114.462C112.196 114.452 112.215 114.437 112.228 114.419C112.361 114.281 112.228 113.97 112.039 113.717C110.113 111.015 107.835 108.582 105.265 106.484C105.218 106.439 105.189 106.378 105.184 106.314C105.178 106.249 105.197 106.185 105.236 106.133C105.275 106.081 105.332 106.045 105.396 106.032C105.459 106.02 105.526 106.031 105.581 106.064C106.639 106.8 107.802 107.37 109.031 107.754C109.434 107.881 109.647 107.829 109.687 107.754C109.727 107.68 109.687 107.427 109.405 107.128C108.607 106.309 107.735 105.566 106.8 104.908C104.963 103.53 102.962 102.384 100.843 101.498C97.4682 100.09 94.093 99.7273 90.4935 99.3421L89.3722 99.2155C89.3382 99.212 89.3052 99.2017 89.2751 99.1853C89.2451 99.1688 89.2186 99.1466 89.1972 99.1199C89.1758 99.0931 89.1599 99.0624 89.1505 99.0295C89.1411 98.9965 89.1383 98.9621 89.1422 98.928C89.1458 98.894 89.1561 98.861 89.1725 98.8309C89.189 98.8009 89.2112 98.7744 89.2379 98.753C89.2647 98.7316 89.2954 98.7157 89.3283 98.7063C89.3613 98.6969 89.3957 98.6941 89.4297 98.6981L90.5797 98.8188C94.1965 99.2098 97.6062 99.5778 101.05 101.015C103.209 101.91 105.249 103.068 107.122 104.465C108.084 105.149 108.981 105.919 109.802 106.765C110.216 107.214 110.342 107.703 110.135 108.03C110.015 108.214 109.693 108.49 108.882 108.237C108.414 108.094 107.955 107.923 107.508 107.726C109.346 109.446 111.008 111.345 112.47 113.395C112.867 113.97 112.918 114.436 112.625 114.758C112.562 114.827 112.486 114.883 112.401 114.921C112.316 114.96 112.224 114.98 112.131 114.982L112.125 115.057Z" fill="#231F20"/>
<path d="M133.797 114.166L142.186 91.7119L107.922 92.3904L100.24 117.995L133.797 114.166Z" fill="white"/>
<path d="M100.24 118.3C100.198 118.3 100.156 118.291 100.119 118.273C100.081 118.255 100.047 118.229 100.021 118.196C99.9911 118.16 99.9702 118.117 99.9602 118.071C99.9501 118.025 99.9514 117.977 99.9637 117.932L107.646 92.3272C107.664 92.2693 107.7 92.2185 107.749 92.1815C107.797 92.1445 107.855 92.1231 107.916 92.1202L142.18 91.4417C142.227 91.441 142.274 91.4516 142.316 91.4726C142.358 91.4936 142.394 91.5244 142.422 91.5624C142.447 91.6012 142.463 91.645 142.469 91.6908C142.475 91.7366 142.471 91.7831 142.456 91.8269L134.067 114.252C134.048 114.303 134.016 114.347 133.973 114.381C133.93 114.414 133.879 114.435 133.826 114.442L100.274 118.3H100.24ZM108.14 92.6894L100.665 117.679L133.613 113.918L141.789 92.0224L108.14 92.6894Z" fill="#231F20"/>
<path d="M131.968 114.373C131.968 114.373 141.266 121.922 138 128.845C134.734 135.768 75.325 143.68 75.325 143.68L72.6512 134.63C72.6512 134.63 119.255 110.825 131.968 114.373Z" fill="#231F20"/>
<path d="M75.325 143.968C75.263 143.967 75.2029 143.946 75.1533 143.909C75.1037 143.872 75.0672 143.82 75.049 143.761L72.3752 134.71C72.3548 134.647 72.3581 134.578 72.3845 134.517C72.411 134.455 72.4587 134.406 72.519 134.377C72.634 134.314 84.3237 128.362 97.4222 122.911C115.046 115.58 126.69 112.613 132.026 114.097C132.066 114.108 132.103 114.127 132.135 114.154C133.757 115.533 135.199 117.111 136.424 118.852C138.989 122.543 139.61 126.039 138.218 128.972C134.895 135.952 77.7917 143.64 75.3652 143.962L75.325 143.968ZM72.9905 134.768L75.532 143.347C79.6835 142.772 134.613 135.193 137.701 128.713C140.737 122.319 132.526 115.206 131.813 114.626C119.726 111.4 76.475 133.043 73.025 134.779L72.9905 134.768Z" fill="#231F20"/>
<path d="M69.575 110.905C69.575 110.905 115.707 129.558 127.144 134.48L120.497 144.75C120.497 144.75 77.901 143.916 65.688 133.215C53.475 122.515 54.2858 104.701 69.575 110.905Z" fill="#231F20"/>
<path d="M120.497 145.049C120.393 145.049 109.693 144.825 97.6407 143.295C81.4257 141.231 70.6157 137.919 65.504 133.44C59.11 127.839 54.6307 118.007 58.1497 112.297C59.2997 110.399 62.3702 107.668 69.6957 110.635C70.1557 110.825 115.96 129.351 127.27 134.21C127.309 134.226 127.344 134.25 127.371 134.281C127.399 134.312 127.42 134.348 127.431 134.388C127.443 134.429 127.446 134.471 127.44 134.513C127.434 134.554 127.419 134.594 127.397 134.63L120.75 144.917C120.723 144.959 120.685 144.993 120.641 145.016C120.597 145.04 120.547 145.051 120.497 145.049ZM63.9112 109.905C61.548 109.905 59.7367 110.813 58.6327 112.596C55.9187 117.006 58.1785 126.264 65.8777 133.008C77.4985 143.192 117.472 144.399 120.342 144.468L126.724 134.607C114.914 129.547 69.9315 111.354 69.4715 111.17C67.7153 110.399 65.8282 109.969 63.9112 109.905Z" fill="#231F20"/>
<path d="M133.975 105.201C134.025 105.467 134.139 105.716 134.308 105.926L135.205 107.266C135.173 107.127 135.11 106.998 135.022 106.886C134.933 106.775 134.822 106.684 134.694 106.62C134.567 106.557 134.428 106.522 134.285 106.518C134.143 106.514 134.002 106.542 133.871 106.599C133.617 106.736 133.405 106.942 133.26 107.193C133.115 107.443 133.042 107.729 133.049 108.019C133.075 108.597 133.212 109.165 133.452 109.692C134.09 111.348 135.533 113.769 137.62 112.515C139.035 111.664 139.426 108.663 139.627 107.168C140.024 104.224 139.121 100.44 135.338 101.015C135.447 102.465 135.988 103.849 136.89 104.989C136.275 104.391 133.785 103.465 133.975 105.201Z" fill="white"/>
<path d="M136.465 113.125C136.234 113.127 136.004 113.088 135.786 113.01C134.423 112.544 133.573 110.79 133.187 109.784C132.936 109.226 132.794 108.625 132.767 108.013C132.758 107.673 132.846 107.338 133.02 107.045C133.194 106.753 133.447 106.517 133.751 106.363C133.892 106.299 134.044 106.265 134.199 106.265L134.073 106.075C133.876 105.828 133.746 105.536 133.693 105.224C133.647 104.996 133.679 104.759 133.783 104.551C133.887 104.342 134.058 104.175 134.268 104.074C134.858 103.892 135.494 103.94 136.051 104.207C135.498 103.241 135.168 102.165 135.085 101.056C135.081 100.989 135.102 100.924 135.143 100.872C135.184 100.82 135.244 100.785 135.309 100.774C135.884 100.648 136.482 100.664 137.05 100.82C137.618 100.976 138.139 101.268 138.569 101.671C139.921 103.005 140.145 105.408 139.898 107.22C139.673 108.876 139.271 111.848 137.764 112.757C137.375 113 136.924 113.127 136.465 113.125ZM134.234 106.8C134.141 106.799 134.049 106.816 133.964 106.852C133.754 106.969 133.581 107.141 133.464 107.35C133.346 107.559 133.288 107.797 133.297 108.036C133.319 108.581 133.448 109.116 133.676 109.612C133.964 110.348 134.757 112.113 135.976 112.527C136.228 112.607 136.494 112.629 136.755 112.59C137.017 112.551 137.265 112.453 137.483 112.303C138.776 111.526 139.167 108.605 139.357 107.202C139.593 105.477 139.403 103.235 138.207 102.027C137.868 101.708 137.459 101.471 137.014 101.334C136.568 101.198 136.097 101.165 135.637 101.24C135.785 102.548 136.297 103.789 137.115 104.822C137.157 104.874 137.177 104.94 137.172 105.006C137.166 105.072 137.136 105.134 137.086 105.178C137.037 105.225 136.972 105.25 136.905 105.25C136.837 105.25 136.773 105.225 136.724 105.178C136.338 104.799 135.068 104.258 134.498 104.534C134.372 104.592 134.211 104.724 134.251 105.173C134.301 105.394 134.399 105.602 134.539 105.782L135.022 106.495C135.148 106.577 135.255 106.686 135.335 106.815C135.414 106.943 135.464 107.087 135.482 107.237C135.488 107.296 135.474 107.355 135.443 107.405C135.411 107.455 135.364 107.493 135.309 107.513C135.254 107.533 135.194 107.533 135.139 107.514C135.083 107.496 135.036 107.459 135.004 107.409L134.648 106.88C134.519 106.818 134.376 106.79 134.234 106.8Z" fill="#231F20"/>
<path d="M121.02 132.353C120.984 132.358 120.947 132.358 120.911 132.353C119.905 131.962 96.1227 122.756 90.7637 119.473C90.6971 119.431 90.6495 119.365 90.6312 119.289C90.6129 119.212 90.6254 119.132 90.666 119.065C90.686 119.031 90.7126 119.002 90.7441 118.979C90.7756 118.955 90.8115 118.939 90.8495 118.93C90.8876 118.921 90.927 118.919 90.9656 118.926C91.0042 118.932 91.0412 118.946 91.0742 118.967C96.3872 122.221 120.876 131.703 121.124 131.795C121.198 131.823 121.257 131.88 121.29 131.952C121.322 132.024 121.324 132.106 121.296 132.18C121.272 132.233 121.234 132.278 121.184 132.308C121.135 132.339 121.078 132.355 121.02 132.353Z" fill="white"/>
<path d="M93.2822 94.8053C98.5252 94.8053 102.776 90.7816 102.776 85.8181C102.776 80.8545 98.5252 76.8308 93.2822 76.8308C88.0393 76.8308 83.789 80.8545 83.789 85.8181C83.789 90.7816 88.0393 94.8053 93.2822 94.8053Z" fill="#231F20"/>
<path d="M93.2822 95.0872C87.8887 95.0872 83.5072 90.93 83.5072 85.8182C83.5072 80.7065 87.8945 76.5435 93.2822 76.5435C98.67 76.5435 103.057 80.7065 103.057 85.8182C103.057 90.93 98.6757 95.0872 93.2822 95.0872ZM93.2822 77.1185C88.205 77.1185 84.0822 81.0227 84.0822 85.8182C84.0822 90.6137 88.2107 94.5122 93.2822 94.5122C98.3537 94.5122 102.482 90.6137 102.482 85.8182C102.482 81.0227 98.3595 77.1185 93.2822 77.1185Z" fill="#231F20"/>
<path d="M88.274 88.739L85.974 87.3935V85.6168L88.274 84.2713C89.0407 83.8305 89.8073 83.3819 90.574 82.9258V85.0763C90.1657 85.3293 89.7575 85.5765 89.3492 85.8123C88.941 86.048 88.5385 86.2895 88.1245 86.5483L89.3492 87.2268L90.574 87.911V90.0845L88.274 88.739Z" fill="white"/>
<path d="M91.2238 90.6539L93.932 80.3499L95.3465 80.9881L92.6268 91.2749L91.2238 90.6539Z" fill="white"/>
<path d="M98.325 84.2713L100.625 85.6168V87.3935L98.325 88.739L96.025 90.0845V87.911L97.2497 87.2268L98.4745 86.5483C98.0662 86.2895 97.658 86.0423 97.2497 85.8123C96.8415 85.5823 96.439 85.3293 96.025 85.0763V82.9258L98.325 84.2713Z" fill="white"/>
<path d="M73.6 110.825C73.5237 110.829 73.4488 110.804 73.3916 110.753C73.3345 110.702 73.2998 110.631 73.2952 110.555C73.2907 110.478 73.3166 110.403 73.3672 110.346C73.4179 110.289 73.4892 110.254 73.5655 110.25L87.3655 108.577L89.5562 97.5309L71.875 96.0359C71.8327 96.0331 71.7917 96.0207 71.7548 95.9998C71.718 95.9789 71.6863 95.95 71.6622 95.9152C71.6364 95.8812 71.6188 95.8417 71.6109 95.7998C71.6029 95.7579 71.6047 95.7147 71.6162 95.6737L78.8842 68.6142C78.9041 68.5379 78.9534 68.4727 79.0213 68.4328C79.0892 68.3929 79.1702 68.3816 79.2465 68.4014C79.3227 68.4212 79.388 68.4705 79.4279 68.5385C79.4678 68.6064 79.4791 68.6874 79.4592 68.7637L72.2775 95.4954L89.9127 96.9559C89.9532 96.9603 89.9923 96.9727 90.0279 96.9925C90.0634 97.0122 90.0946 97.0389 90.1197 97.0709C90.1438 97.1036 90.1608 97.1409 90.1697 97.1805C90.1786 97.2201 90.1792 97.2611 90.1715 97.3009L87.8715 108.864C87.859 108.923 87.8285 108.977 87.7843 109.018C87.74 109.059 87.6841 109.086 87.6242 109.094L73.6 110.79V110.825Z" fill="#231F20"/>
<path d="M149.592 32.74H120.922V35.707H149.592V32.74Z" fill="#E6E7E8"/>
<path d="M181.597 32.74H152.927V35.707H181.597V32.74Z" fill="#E6E7E8"/>
<path d="M149.592 37.823H132.762V40.79H149.592V37.823Z" fill="#68E1FD"/>
<path d="M178.394 37.823H152.927V40.79H178.394V37.823Z" fill="#E6E7E8"/>
<path d="M149.592 42.9116H128.38V45.8786H149.592V42.9116Z" fill="#E6E7E8"/>
<path d="M164.887 42.9116H152.927V45.8786H164.887V42.9116Z" fill="#E6E7E8"/>
<path d="M149.598 47.9946H137.224V50.9616H149.598V47.9946Z" fill="#E6E7E8"/>
<path d="M176.353 47.9946H152.927V50.9616H176.353V47.9946Z" fill="#68E1FD"/>
<path d="M149.592 53.0835H145.653V56.0505H149.592V53.0835Z" fill="#68E1FD"/>
<path d="M168.665 53.0835H152.927V56.0505H168.665V53.0835Z" fill="#E6E7E8"/>
<path d="M149.097 73.9905H122.751V77.3887H149.097V73.9905Z" fill="#68E1FD"/>
<path d="M169.51 73.9905H153.329V77.3887H169.51V73.9905Z" fill="#E6E7E8"/>
<path d="M149.092 79.8093H127.702V83.2076H149.092V79.8093Z" fill="#E6E7E8"/>
<path d="M176.887 79.8093H153.329V83.2076H176.887V79.8093Z" fill="#E6E7E8"/>
<path d="M149.092 85.634H138.397V89.0323H149.092V85.634Z" fill="#E6E7E8"/>
<path d="M181.343 85.634H153.329V89.0323H181.343V85.634Z" fill="#E6E7E8"/>
<path d="M149.092 91.459H145.084V94.8572H149.092V91.459Z" fill="#E6E7E8"/>
<path d="M183.103 91.459H153.329V94.8572H183.103V91.459Z" fill="#68E1FD"/>
<path d="M173.328 97.2778H153.329V100.676H173.328V97.2778Z" fill="#E6E7E8"/>
<path d="M163.467 66.6188L161.305 65.7563V64.6063L163.467 63.7438L165.629 62.8813V64.2498C165.238 64.4166 164.852 64.5718 164.479 64.7213C164.105 64.8708 163.708 65.0261 163.329 65.1928L164.479 65.6298L165.629 66.0668V67.4583L163.467 66.6188Z" fill="#E6E7E8"/>
<path d="M166.267 67.8435L168.831 61.2483L170.177 61.6508L167.595 68.2748L166.267 67.8435Z" fill="#E6E7E8"/>
<path d="M172.972 63.7612C173.69 64.0487 174.415 64.3362 175.134 64.6237V65.7737L172.972 66.6362L170.81 67.4987V66.0899L171.96 65.6529L173.11 65.2159C172.719 65.0492 172.333 64.8939 171.96 64.7444C171.586 64.5949 171.189 64.4397 170.81 64.2729V62.8987L172.972 63.7612Z" fill="#E6E7E8"/>
<path d="M121.676 25.6674C121.675 25.5341 121.704 25.4023 121.762 25.2821C121.812 25.1596 121.889 25.0497 121.986 24.9601C122.082 24.8716 122.193 24.8015 122.314 24.7531C122.444 24.6999 122.582 24.6726 122.722 24.6726C122.855 24.6738 122.986 24.7012 123.108 24.7531C123.226 24.8028 123.335 24.8729 123.43 24.9601C123.522 25.0531 123.596 25.1623 123.648 25.2821C123.701 25.4036 123.729 25.5348 123.729 25.6674C123.729 25.8018 123.701 25.9349 123.648 26.0584C123.594 26.1722 123.52 26.2754 123.43 26.3631C123.237 26.5427 122.985 26.645 122.722 26.6506C122.582 26.6506 122.444 26.6233 122.314 26.5701C122.192 26.524 122.08 26.4535 121.986 26.3631C121.891 26.2787 121.814 26.1748 121.762 26.0584C121.704 25.9361 121.675 25.8025 121.676 25.6674ZM121.676 29.0369C121.679 28.9052 121.707 28.7754 121.761 28.655C121.814 28.5346 121.891 28.4259 121.986 28.3354C122.08 28.2431 122.192 28.1707 122.314 28.1226C122.444 28.0714 122.583 28.046 122.722 28.0479C122.854 28.0471 122.985 28.0725 123.108 28.1226C123.228 28.1722 123.337 28.2444 123.43 28.3354C123.521 28.4262 123.596 28.5335 123.648 28.6516C123.701 28.7741 123.728 28.9062 123.728 29.0397C123.728 29.1732 123.701 29.3053 123.648 29.4279C123.596 29.5443 123.521 29.6497 123.43 29.7384C123.335 29.8256 123.226 29.8956 123.108 29.9454C122.985 29.9955 122.854 30.0209 122.722 30.0201C122.583 30.0219 122.444 29.9966 122.314 29.9454C122.193 29.897 122.082 29.8268 121.986 29.7384C121.889 29.653 121.813 29.5469 121.762 29.4279C121.704 29.3058 121.674 29.1721 121.676 29.0369Z" fill="#E6E7E8"/>
<path d="M155.25 122.417C155.477 122.429 155.702 122.364 155.888 122.233C156.049 122.112 156.124 121.859 156.124 121.468V119.686C156.124 119.39 156.162 119.097 156.239 118.812C156.311 118.546 156.432 118.296 156.595 118.076C156.763 117.863 156.975 117.691 157.217 117.57C157.504 117.435 157.819 117.37 158.136 117.38H159.43V119.231H158.976C158.872 119.221 158.768 119.239 158.674 119.284C158.579 119.328 158.499 119.398 158.441 119.484C158.342 119.659 158.292 119.858 158.297 120.059V121.876C158.304 122.106 158.263 122.335 158.177 122.549C158.108 122.714 158.01 122.866 157.889 122.998C157.783 123.111 157.657 123.203 157.516 123.268C157.403 123.327 157.28 123.364 157.153 123.377C157.278 123.4 157.4 123.439 157.516 123.492C157.656 123.553 157.783 123.641 157.889 123.751C158.166 124.057 158.312 124.459 158.297 124.872V126.695C158.29 126.896 158.34 127.095 158.441 127.27C158.498 127.358 158.578 127.428 158.673 127.474C158.767 127.519 158.872 127.538 158.976 127.529H159.43V129.38H158.136C157.819 129.389 157.504 129.324 157.217 129.19C156.975 129.069 156.763 128.897 156.595 128.684C156.433 128.463 156.312 128.213 156.239 127.948C156.163 127.661 156.124 127.366 156.124 127.069V125.286C156.144 125.15 156.133 125.011 156.092 124.88C156.052 124.748 155.982 124.628 155.888 124.527C155.702 124.396 155.477 124.331 155.25 124.343V122.417Z" fill="#E6E7E8"/>
<path d="M175.11 124.332C174.881 124.32 174.655 124.385 174.467 124.516C174.374 124.617 174.305 124.738 174.264 124.869C174.223 125 174.212 125.138 174.231 125.275V127.057C174.231 127.354 174.192 127.65 174.116 127.937C174.045 128.203 173.924 128.453 173.759 128.673C173.595 128.888 173.382 129.061 173.138 129.179C172.851 129.313 172.536 129.378 172.218 129.369H170.924V127.5H171.384C171.488 127.508 171.592 127.489 171.685 127.443C171.778 127.398 171.857 127.328 171.914 127.241C172.015 127.067 172.064 126.867 172.057 126.666V124.843C172.051 124.615 172.093 124.388 172.178 124.176C172.248 124.009 172.348 123.855 172.471 123.722C172.576 123.612 172.701 123.524 172.839 123.463C172.957 123.411 173.081 123.372 173.207 123.348C173.079 123.335 172.954 123.298 172.839 123.239C172.7 123.174 172.575 123.083 172.471 122.969C172.346 122.839 172.247 122.687 172.178 122.52C172.092 122.307 172.051 122.078 172.057 121.848V120.025C172.063 119.824 172.013 119.625 171.914 119.45C171.856 119.364 171.777 119.295 171.684 119.251C171.591 119.206 171.487 119.188 171.384 119.197H170.924V117.38H172.218C172.536 117.37 172.851 117.435 173.138 117.57C173.382 117.687 173.595 117.86 173.759 118.076C173.925 118.295 174.047 118.545 174.116 118.812C174.193 119.097 174.231 119.39 174.231 119.686V121.468C174.212 121.605 174.223 121.745 174.263 121.877C174.304 122.009 174.374 122.13 174.467 122.233C174.655 122.364 174.881 122.429 175.11 122.417V124.332Z" fill="#E6E7E8"/>
</svg>
