<svg width="220" height="166" viewBox="0 0 220 166" fill="none" xmlns="http://www.w3.org/2000/svg">
<path d="M106.98 160.594L12.1 104.521C9.0805 102.827 6.49 100.039 9.4325 98.2184L104.659 43.3394C106.089 42.4539 108.256 41.8764 109.708 42.7179L209.297 100.506C212.316 102.261 212.861 107.161 209.847 108.916L119.487 160.506C117.59 161.606 115.439 162.193 113.246 162.209C111.052 162.224 108.893 161.668 106.98 160.594Z" fill="#E75D48"/>
<path opacity="0.32" d="M177.259 100.836C170.021 105.055 164.851 107.893 153.719 114.245C162.145 119.366 169.51 123.122 170.456 123.683L194.656 109.933C192.692 108.927 186.268 105.291 177.259 100.836Z" fill="url(#paint0_linear_18_673)"/>
<path opacity="0.32" d="M83.05 112.865C74.327 117.952 68.0955 121.368 54.681 129.024C64.834 135.195 73.711 139.727 74.855 140.398L104.005 123.848C101.667 122.616 93.929 118.233 83.05 112.865Z" fill="url(#paint1_linear_18_673)"/>
<path opacity="0.32" d="M29.8485 107.079C34.375 104.065 38.9785 101.161 43.5545 98.2294L37.0535 93.4829L11.8745 103.988C14.916 105.583 19.0245 108.569 23.3475 111.611C25.498 110.076 27.6485 108.542 29.8485 107.079Z" fill="url(#paint2_linear_18_673)"/>
<path d="M46.024 81.3994C45.9866 81.2438 45.9173 81.0978 45.8205 80.9704C45.6429 80.7541 45.4311 80.5683 45.1935 80.4204C41.998 78.2589 37.5705 77.6704 34.1935 79.7769C33.4235 80.2609 32.274 81.3554 32.7305 82.3894C32.9945 82.9889 33.7975 83.3409 34.3805 83.5829C36.2344 84.3238 38.172 84.8354 40.15 85.1064C40.865 85.2274 41.591 85.3484 42.3115 85.4144C42.8099 85.4624 43.3124 85.3843 43.7728 85.1873C44.2332 84.9902 44.6366 84.6806 44.946 84.2869C45.4465 83.6324 46.2495 82.3564 46.024 81.3994Z" fill="#754C24"/>
<path d="M32.637 81.9164C32.637 81.9164 35.552 84.5564 40.59 84.1714C45.628 83.7864 46.0185 81.4214 46.0185 81.4214C46.0185 81.4214 44.715 98.1194 44.0275 98.4054C43.34 98.6914 40.766 99.9344 39.523 100.028C38.28 100.121 34.353 98.5484 34.254 98.1139C34.155 97.6794 32.637 81.9164 32.637 81.9164Z" fill="#FF8F6F"/>
<path d="M33.55 57.6064C33.396 57.2929 32.9175 57.5679 33.077 57.8814C36.5255 64.8334 37.1965 72.6599 37.818 80.2609C37.8455 80.6074 38.3955 80.6129 38.368 80.2609C37.7465 72.5334 37.0535 64.6244 33.55 57.6064Z" fill="#007F68"/>
<path d="M33.1155 57.6504C33.1155 57.6504 34.078 61.2584 33.0825 63.0624C32.087 64.8664 31.2675 65.2239 32.4555 67.4624C33.6435 69.7009 36.8225 70.0034 37.0315 71.7194C37.2405 73.4354 35.5135 60.7139 33.1155 57.6504Z" fill="#007F68"/>
<path d="M44.143 64.1624C41.4871 69.7168 39.99 75.7537 39.743 81.9054C39.743 82.3344 40.3975 82.3289 40.414 81.9054C40.6472 75.8707 42.1048 69.9464 44.6985 64.4924C44.9075 64.1129 44.33 63.7719 44.143 64.1624Z" fill="#007F68"/>
<path d="M44.616 65.9169C44.616 65.5539 44.5335 64.8169 44.572 64.2064L44.187 64.4484C42.878 67.6329 40.92 75.1129 40.337 77.4009C41.1345 75.6849 44.396 75.4484 45.353 73.0009C45.7753 71.962 45.7949 70.803 45.408 69.7504C44.936 68.5245 44.6684 67.2295 44.616 65.9169Z" fill="#007F68"/>
<path opacity="0.32" d="M118.024 128.072C126.89 123.298 147.873 112.744 156.673 107.86L106.029 76.1744L69.487 100.985C78.76 105.836 105.193 120.136 118.024 128.072Z" fill="url(#paint3_linear_18_673)"/>
<path d="M75.284 74.6564C75.3225 86.3879 75.3885 96.9479 75.3885 96.9479C75.3885 96.9479 75.636 97.9049 77.4015 97.1239V73.9524C76.6975 74.1889 75.9935 74.4144 75.284 74.6564Z" fill="#5B434D"/>
<path d="M124.339 103.168C124.377 114.9 124.443 125.46 124.443 125.46C124.443 125.46 124.691 126.417 126.456 125.636V102.486C125.752 102.706 125.048 102.948 124.339 103.168Z" fill="#5B434D"/>
<path d="M154.55 85.3925C154.589 97.124 154.655 107.684 154.655 107.684C154.655 107.684 154.902 108.641 156.668 107.86V84.7104C155.969 84.9414 155.265 85.1725 154.55 85.3925Z" fill="#5B434D"/>
<path d="M74.8715 73.9524V75.9489L125.493 105.236L156.623 84.7929L156.673 82.5599" fill="#A5DD73"/>
<path opacity="0.76" d="M74.8715 73.9524V75.9489L125.493 105.236L156.623 84.7929L156.673 82.5599" fill="#6DB720"/>
<path d="M74.8715 73.9524L107.442 55.3734L156.673 82.5599L125.317 103.234L74.8715 73.9524Z" fill="#A5DD73"/>
<path d="M120.071 64.2834L113.212 67.5834C112.953 67.7075 112.733 67.8998 112.575 68.1397C112.418 68.3795 112.329 68.6578 112.317 68.9446C112.306 69.2314 112.373 69.5158 112.511 69.7673C112.65 70.0188 112.854 70.2279 113.102 70.3719L129.366 79.8595C129.717 80.0642 130.134 80.1254 130.53 80.0301C130.925 79.9347 131.269 79.6904 131.489 79.3479L135.438 73.2044" fill="#56403D"/>
<path d="M154.55 46.6998L98.5215 14.4313C98.2441 14.2666 97.928 14.1786 97.6054 14.1762C97.2828 14.1738 96.9654 14.2572 96.6857 14.4178C96.4059 14.5783 96.1738 14.8104 96.0132 15.0901C95.8526 15.3699 95.7692 15.6873 95.7715 16.0098V50.2913C95.7722 50.5378 95.8376 50.7799 95.9611 50.9932C96.0846 51.2065 96.262 51.3836 96.4755 51.5069L156.09 85.9203C156.193 85.9805 156.31 86.0124 156.43 86.0126C156.549 86.0128 156.666 85.9815 156.77 85.9217C156.873 85.8619 156.959 85.7759 157.018 85.6723C157.077 85.5687 157.108 85.4512 157.107 85.3319V51.1879C157.111 50.2814 156.877 49.3899 156.428 48.6024C155.979 47.8148 155.332 47.1588 154.55 46.6998Z" fill="#68E1FD"/>
<path d="M99.495 17.4564L152.548 47.9814C153.115 48.3073 153.585 48.7768 153.913 49.3427C154.24 49.9086 154.412 50.5507 154.413 51.2044V75.7894C154.413 76.0253 154.352 76.2572 154.234 76.4618C154.117 76.6663 153.947 76.8362 153.743 76.9545C153.539 77.0727 153.307 77.135 153.071 77.1352C152.836 77.1354 152.604 77.0734 152.4 76.9554L98.296 45.9134C98.0938 45.7973 97.9257 45.6299 97.8089 45.428C97.692 45.2262 97.6305 44.9971 97.6305 44.7639V18.5564C97.628 18.3369 97.6835 18.1206 97.7913 17.9293C97.8991 17.738 98.0554 17.5786 98.2445 17.467C98.4336 17.3555 98.6488 17.2957 98.8684 17.2939C99.0879 17.292 99.304 17.3481 99.495 17.4564Z" fill="#200A52"/>
<path d="M122.383 63.7309C122.696 63.6706 122.949 63.6193 122.949 63.6163C122.948 63.6134 122.694 63.6598 122.381 63.7201C122.067 63.7805 121.814 63.8318 121.815 63.8347C121.815 63.8377 122.07 63.7913 122.383 63.7309Z" fill="#AB643C"/>
<path d="M150.387 49.3729C150.705 49.3729 150.964 49.0922 150.964 48.7459C150.964 48.3996 150.705 48.1189 150.387 48.1189C150.068 48.1189 149.809 48.3996 149.809 48.7459C149.809 49.0922 150.068 49.3729 150.387 49.3729Z" fill="#659FE4"/>
<path d="M148.544 48.4544C148.863 48.4544 149.121 48.1737 149.121 47.8274C149.121 47.4812 148.863 47.2004 148.544 47.2004C148.225 47.2004 147.966 47.4812 147.966 47.8274C147.966 48.1737 148.225 48.4544 148.544 48.4544Z" fill="#C5E9FF"/>
<path d="M100.606 24.2489L133.139 42.7344" stroke="#00A99D" stroke-width="4.06" stroke-miterlimit="10"/>
<path d="M100.721 29.0834L105.99 32.0754" stroke="#D4145A" stroke-width="4.06" stroke-miterlimit="10"/>
<path d="M107.547 33.0874L136.829 49.1859" stroke="#29ABE2" stroke-width="4.06" stroke-miterlimit="10"/>
<path d="M100.606 33.4944L111.848 39.6929" stroke="#F7931E" stroke-width="4.06" stroke-miterlimit="10"/>
<path d="M113.713 40.8699L138.369 54.0589" stroke="#00A99D" stroke-width="4.06" stroke-miterlimit="10"/>
<path d="M174.119 44.7584V68.4084C174.12 68.8749 173.997 69.3332 173.763 69.7366C173.529 70.14 173.192 70.4739 172.786 70.7044C172.381 70.9348 171.921 71.0535 171.455 71.0482C170.988 71.043 170.532 70.914 170.131 70.6744L147.631 57.2544C147.238 57.0207 146.913 56.689 146.688 56.2917C146.462 55.8944 146.344 55.4453 146.344 54.9884V31.7564C146.344 31.2935 146.465 30.8386 146.696 30.4376C146.928 30.0366 147.261 29.7036 147.662 29.4722C148.062 29.2408 148.517 29.1191 148.98 29.1194C149.443 29.1197 149.898 29.242 150.298 29.4739L172.799 42.4649C173.202 42.6968 173.536 43.0311 173.768 43.4339C174 43.8367 174.121 44.2937 174.119 44.7584Z" fill="#A5DD73"/>
<path d="M158.059 42.0854L150.766 47.448L157.306 56.6275" stroke="#006837" stroke-width="4.06" stroke-miterlimit="10"/>
<path d="M164.511 45.9574L169.879 56.4404L162.333 59.9604" stroke="#006837" stroke-width="4.06" stroke-miterlimit="10"/>
<path d="M101.074 67.6274L89.254 74.3814C89.1307 74.453 89.0284 74.5557 88.9572 74.6793C88.8861 74.8028 88.8486 74.9429 88.8486 75.0854C88.8486 75.228 88.8861 75.3681 88.9572 75.4916C89.0284 75.6152 89.1307 75.7179 89.254 75.7894L122.1 94.6709C122.498 94.9002 122.95 95.0208 123.409 95.0208C123.868 95.0208 124.32 94.9002 124.718 94.6709L135.778 88.2854C135.908 88.2112 136.015 88.1042 136.089 87.9753C136.164 87.8464 136.203 87.7001 136.203 87.5512C136.203 87.4023 136.164 87.256 136.089 87.1271C136.015 86.9982 135.908 86.8912 135.778 86.8169L102.559 67.6274C102.333 67.4955 102.077 67.4259 101.816 67.4259C101.555 67.4259 101.299 67.4955 101.074 67.6274Z" fill="#200A52"/>
<path d="M118.932 78.3964L115.561 80.3984L118.063 81.8504L121.451 79.8594L118.932 78.3964Z" fill="white"/>
<path d="M115.236 76.2458L111.865 78.2478L115.038 80.0904L118.426 78.0993L115.236 76.2458Z" fill="white"/>
<path d="M101.805 68.4469L98.3785 70.4159L101.426 72.1869L104.814 70.1959L101.805 68.4469Z" fill="white"/>
<path d="M109.027 72.6434L105.655 74.6564L108.158 76.1084L111.546 74.1174L109.027 72.6434Z" fill="white"/>
<path d="M105.331 70.4929L101.959 72.4949L105.127 74.3374C105.501 74.1229 107.624 72.8689 108.515 72.3464L105.331 70.4929Z" fill="white"/>
<path d="M121.963 80.1564L118.591 82.1584L120.989 83.5499L124.372 81.5589L121.963 80.1564Z" fill="white"/>
<path d="M112.057 74.4034L108.686 76.4054L111.337 77.9454L114.725 75.9544L112.057 74.4034Z" fill="white"/>
<path d="M124.889 81.8503L121.517 83.8523L124.691 85.6948L128.078 83.7038L124.889 81.8503Z" fill="white"/>
<path d="M128.584 84.0009L125.207 85.9973L130.9 89.3029L134.326 87.3339L128.584 84.0009Z" fill="white"/>
<path d="M97.944 70.9989L94.5175 72.9679L98.9505 75.5419L102.338 73.5509L97.944 70.9989Z" fill="white"/>
<path d="M106.546 75.9929L103.174 77.9949L105.677 79.4469L109.065 77.4559L106.546 75.9929Z" fill="white"/>
<path d="M112.75 79.6064L109.378 81.6084L112.552 83.4509L115.94 81.4599L112.75 79.6064Z" fill="white"/>
<path d="M109.577 77.7529L106.205 79.7549L108.856 81.2949L112.244 79.3039L109.577 77.7529Z" fill="white"/>
<path d="M116.451 81.7458L113.08 83.7478L115.582 85.1998L118.965 83.2089L116.451 81.7458Z" fill="white"/>
<path d="M119.482 83.5059L116.111 85.5079L118.509 86.8994L121.891 84.9084L119.482 83.5059Z" fill="white"/>
<path d="M102.85 73.8479L99.4785 75.8499L102.647 77.6924L106.035 75.7014L102.85 73.8479Z" fill="white"/>
<path d="M122.403 85.2054L119.031 87.2075L122.205 89.0499L125.587 87.059L122.403 85.2054Z" fill="white"/>
<path d="M122.727 89.3523L127.033 91.8548L130.465 89.8858L126.098 87.3503L122.727 89.3523Z" fill="white"/>
<path d="M120.203 89.0059L117.695 90.5019L120.604 92.1849L123.151 90.7219L120.203 89.0059Z" fill="white"/>
<path d="M121.209 92.5369L123.684 93.9669L126.236 92.5094L123.711 91.0464L121.209 92.5369Z" fill="white"/>
<path d="M93.7145 73.6224L91.0855 75.0854L94.0665 76.8069L96.646 75.3274L93.7145 73.6224Z" fill="white"/>
<path d="M97.2015 75.6519L94.666 77.1589L97.8505 79.0014L100.425 77.5219L97.2015 75.6519Z" fill="white"/>
<path d="M100.986 77.8464L98.4555 79.3534L117.09 90.1499L119.642 88.6814L100.986 77.8464Z" fill="white"/>
<path d="M186.829 111.534C192.549 111.534 197.186 109.241 197.186 106.413C197.186 103.586 192.549 101.293 186.829 101.293C181.11 101.293 176.473 103.586 176.473 106.413C176.473 109.241 181.11 111.534 186.829 111.534Z" fill="#68E1FD"/>
<path d="M197.191 92.7734V106.699C197.191 106.699 189.491 113.849 176.473 106.815V92.7734" fill="#68E1FD"/>
<path opacity="0.21" d="M189.106 106.276C186.246 108.476 182.792 109.521 179.25 109.895C181.611 111.037 184.208 111.602 186.829 111.545C192.329 111.545 196.823 109.422 197.153 106.738L197.186 106.71V92.7734H196.993C195.25 97.7564 193.413 102.932 189.106 106.276Z" fill="#200A52"/>
<path d="M178.024 97.7564C178.024 97.7564 176.308 95.1329 174.691 96.6564C173.074 98.1799 174.488 103.421 179.234 103.927V106.006C179.234 106.006 173.277 105.198 172.469 99.8464C171.66 94.4949 175.499 93.6699 177.419 95.1439" fill="#68E1FD"/>
<path d="M186.829 97.9489C192.549 97.9489 197.186 95.6564 197.186 92.8284C197.186 90.0004 192.549 87.7079 186.829 87.7079C181.11 87.7079 176.473 90.0004 176.473 92.8284C176.473 95.6564 181.11 97.9489 186.829 97.9489Z" fill="#663535"/>
<path d="M89.3585 92.8063C86.8065 91.0243 83.8035 90.0563 80.5585 90.7603C77.1045 91.5193 74.1125 93.6918 70.5925 94.2253C70.0425 94.3078 67.815 94.1648 67.474 94.4893C57.6785 103.762 85.074 102.767 85.074 102.767C87.7305 100.567 90.233 98.4493 92.873 96.2493C92.07 94.4893 90.75 93.7853 89.3585 92.8063Z" fill="#F8997C"/>
<path d="M76.45 106.27L75.4765 134.243C75.438 135.305 77.088 135.305 77.1265 134.243L78.1 106.27C78.155 105.209 76.5105 105.214 76.45 106.27Z" fill="#F8997C"/>
<path d="M97.0035 121.236C92.0168 116.356 87.2502 111.263 82.7035 105.957C82.0105 105.148 80.85 106.32 81.5375 107.123C86.0768 112.425 90.8435 117.518 95.8375 122.402C96.5965 123.144 97.768 121.956 97.0035 121.236Z" fill="#F8997C"/>
<path d="M70.752 103.685C66.88 110.993 63.2335 118.413 59.8125 125.944C59.378 126.901 60.797 127.742 61.237 126.774C64.658 119.243 68.3045 111.824 72.1765 104.516C72.6715 103.581 71.2525 102.745 70.752 103.685Z" fill="#F8997C"/>
<path d="M90.0405 74.1065C90.376 74.024 93.1975 73.298 93.8905 73.067C94.5835 72.836 96.7285 71.1695 97.8945 71.417C99.0605 71.6645 101.409 73.21 101.519 73.727C101.629 74.244 100.969 74.871 100.722 75.0965C100.474 75.322 98.7745 74.7005 98.1145 74.596C97.4545 74.4915 96.404 76.0535 95.7825 76.3285C95.161 76.6035 91.146 77.324 91.146 77.324" fill="#FCBF81"/>
<path d="M97.625 80.9594C97.9605 80.8769 100.782 80.1509 101.475 79.9199C102.168 79.6889 104.313 78.0224 105.479 78.2699C106.645 78.5174 108.993 80.0629 109.103 80.5799C109.213 81.0969 108.553 81.7239 108.306 81.9494C108.058 82.1749 106.359 81.5534 105.699 81.4489C105.039 81.3444 103.989 82.9064 103.367 83.1814C102.746 83.4564 98.7305 84.1769 98.7305 84.1769" fill="#FCBF81"/>
<path d="M96.5305 116.506C97.042 115.956 97.3775 115.406 97.2015 114.828C96.888 113.8 95.491 113.382 94.534 113.437C93.577 113.492 92.587 113.987 91.619 114.262C90.6069 114.625 89.5266 114.759 88.4565 114.652C88.2843 114.627 88.1275 114.539 88.0165 114.405C87.7198 114.339 87.4454 114.197 87.2207 113.992C86.9959 113.788 86.8284 113.528 86.735 113.239L83.567 112.106C83.567 112.106 82.7585 118.799 82.786 119.256C83.0225 122.869 88.418 120.807 88.418 120.807C88.418 120.807 88.6105 119.157 88.66 118.953C88.7095 118.75 90.7775 119.377 91.63 119.245C92.0221 119.135 92.3936 118.963 92.73 118.733C93.368 118.381 93.995 118.007 94.6165 117.633C95.238 117.259 95.887 116.891 96.5305 116.506Z" fill="#56403D"/>
<path d="M84.7 91.7999C83.512 91.9154 82.324 92.0694 81.1415 92.2399C81.6328 99.8409 82.1828 107.436 82.7915 115.026C85.8715 116.286 87.12 115.703 89.0285 113.75C89.3915 106.507 90.024 98.9004 90.0075 91.5964C88.2475 91.6734 86.4765 91.7504 84.7 91.7999Z" fill="#34323D"/>
<path d="M71.9015 89.7154C71.9015 89.7154 71.39 98.0369 75.57 99.8904C79.75 101.744 88.3245 100.82 92.543 98.3449C94.7239 97.0166 97.0126 95.8741 99.385 94.9294C99.385 94.9294 100.485 91.2884 97.8395 89.7154C95.194 88.1424 89.397 86.1954 84.238 89.7154" fill="#34323D"/>
<path d="M93.214 77.2579C93.6595 75.5584 93.401 72.7534 93.401 72.7534C93.401 72.7534 88.1815 73.6444 85.9815 73.3034C83.7815 72.9624 80.1845 68.3534 80.1845 68.3534L80.674 77.4834C84.843 78.3579 89.1605 78.5449 93.214 77.2579Z" fill="#BA3E00"/>
<path d="M106.183 121.72C106.694 121.17 107.03 120.62 106.854 120.042C106.54 119.014 105.143 118.596 104.186 118.651C103.229 118.706 102.239 119.201 101.271 119.476C100.259 119.839 99.1791 119.973 98.109 119.866C97.9368 119.841 97.78 119.753 97.669 119.619C97.3723 119.553 97.0979 119.411 96.8732 119.206C96.6484 119.002 96.4809 118.742 96.3875 118.453L93.2195 117.32C93.2195 117.32 92.411 124.013 92.4385 124.47C92.675 128.083 98.0705 126.021 98.0705 126.021C98.0705 126.021 98.263 124.371 98.3125 124.167C98.362 123.964 100.43 124.591 101.282 124.459C101.675 124.349 102.046 124.177 102.382 123.947C103.02 123.595 103.647 123.221 104.269 122.847C104.89 122.473 105.545 122.105 106.183 121.72Z" fill="#56403D"/>
<path d="M93.995 89.9189C92.895 89.4019 91.762 89.4569 90.453 89.4624C90.6345 92.1409 90.5355 93.1034 90.7005 95.7764L90.7445 96.4859C91.2505 104.406 91.8445 112.32 92.4495 120.235C95.5295 121.494 96.778 120.911 98.6865 118.959C99.11 110.527 99.9075 101.628 99.5995 93.2354C97.823 91.4754 96.25 90.9749 93.995 89.9189Z" fill="#34323D"/>
<path d="M71.83 87.9939C71.83 88.1974 71.8685 88.8849 71.9015 89.7154C73.634 91.9979 75.7515 93.3344 79.0515 93.2354C81.741 93.1584 84.0015 91.9814 86.0915 90.5294C85.8275 85.6619 85.041 77.3294 83.8145 71.5379C83.71 71.0484 82.4395 70.7184 82.0655 70.5149C81.191 70.0364 81.7025 69.2114 80.8445 68.6999C79.6001 67.9752 78.3041 67.3428 76.967 66.8079H76.934C74.7945 66.7749 71.104 68.4249 70.884 71.2904C70.5485 75.6904 71.0325 78.3579 71.3735 82.7524C71.5 84.5234 71.6815 86.2724 71.83 87.9939Z" fill="#E55600"/>
<path d="M79.2825 58.4644C79.563 58.5359 81.939 64.0029 81.0095 67.3249C80.08 70.6469 74.437 67.2314 73.018 64.7014C71.599 62.1714 73.9475 57.0564 79.2825 58.4644Z" fill="#FCBF81"/>
<path d="M79.2 59.2289C79.2 59.2289 79.2 61.0329 77.6215 61.6159C76.043 62.1989 74.7285 62.5894 74.8165 63.3209C74.9045 64.0524 77.671 63.2164 77.682 64.8884C77.6829 66.0147 77.5312 67.1359 77.231 68.2214C77.055 69.0409 72.3195 66.5274 70.7575 62.2484C69.1955 57.9694 73.106 56.8309 73.2985 56.8034C73.491 56.7759 73.8485 55.6099 75.757 55.1919C77.6655 54.7739 78.2155 55.5219 78.2155 55.5219C78.651 55.2594 79.1606 55.1469 79.6662 55.2015C80.1718 55.2562 80.6455 55.475 81.015 55.8244C82.7805 57.2269 82.335 59.7899 80.333 60.8294L79.2 59.2289Z" fill="#34323D"/>
<path d="M100.98 79.6064C98.5215 80.1179 93.5275 80.9319 91.762 80.1564C90.3925 79.5569 85.822 69.7559 80.8555 68.7054L80.1845 76.1854C80.1845 76.1854 87.208 85.0954 90.453 86.0139C92.8125 86.6794 99.165 85.7884 101.954 84.8204C102.074 83.0281 101.739 81.2344 100.98 79.6064Z" fill="#E55600"/>
<path d="M85.4205 81.9108C85.063 81.4488 80.993 76.8398 80.993 76.8398L85.8825 86.8553L85.4205 81.9108Z" fill="#34323D"/>
<path d="M92.488 96.1064C90.9603 98.2359 88.7955 99.8249 86.306 100.644C82.819 101.705 77.748 101.194 75.9165 97.5584C72.5835 90.9254 75.713 82.6204 72.193 76.1689C71.7866 75.3534 71.2125 74.633 70.5082 74.0548C69.804 73.4766 68.9855 73.0538 68.1065 72.8139C65.824 72.3134 64.2565 74.0294 63.4315 76.0479C61.9465 79.6669 62.0015 84.1714 62.073 88.0269C62.0767 91.1411 62.3027 94.251 62.7495 97.3329C62.7495 97.3329 64.8835 110.263 81.5155 106.793C84.3959 106.271 87.1622 105.247 89.6885 103.768C90.9829 103.022 92.1159 102.025 93.0215 100.836C94.05 99.3404 93.3625 97.5859 92.488 96.1064Z" fill="#68E1FD"/>
<defs>
<linearGradient id="paint0_linear_18_673" x1="171.066" y1="114.971" x2="182.825" y2="104.114" gradientUnits="userSpaceOnUse">
<stop stop-color="#E75D48"/>
<stop offset="1" stop-color="#502019"/>
</linearGradient>
<linearGradient id="paint1_linear_18_673" x1="75.6085" y1="129.898" x2="89.7765" y2="116.819" gradientUnits="userSpaceOnUse">
<stop stop-color="#E75D48"/>
<stop offset="1" stop-color="#502019"/>
</linearGradient>
<linearGradient id="paint2_linear_18_673" x1="24.64" y1="103.586" x2="37.6035" y2="93.1364" gradientUnits="userSpaceOnUse">
<stop stop-color="#E75D48"/>
<stop offset="1" stop-color="#502019"/>
</linearGradient>
<linearGradient id="paint3_linear_18_673" x1="104.461" y1="115.912" x2="120.048" y2="95.1274" gradientUnits="userSpaceOnUse">
<stop stop-color="#E75D48"/>
<stop offset="1" stop-color="#502019"/>
</linearGradient>
</defs>
</svg>
