<svg width="253" height="191" viewBox="0 0 253 191" fill="none" xmlns="http://www.w3.org/2000/svg">
<path opacity="0.45" d="M55.913 169.522C75.723 169.522 91.7821 166.481 91.7821 162.729C91.7821 158.977 75.723 155.936 55.913 155.936C36.1031 155.936 20.0439 158.977 20.0439 162.729C20.0439 166.481 36.1031 169.522 55.913 169.522Z" fill="#E6E6E6"/>
<path d="M189.921 48.7272H57.665V135.633H189.921V48.7272Z" fill="#E6E6E6"/>
<path d="M64.0596 56.6587C65.2543 56.6587 66.2228 55.6902 66.2228 54.4955C66.2228 53.3009 65.2543 52.3324 64.0596 52.3324C62.865 52.3324 61.8965 53.3009 61.8965 54.4955C61.8965 55.6902 62.865 56.6587 64.0596 56.6587Z" fill="#24285B"/>
<path d="M70.4858 56.6587C71.6805 56.6587 72.6489 55.6902 72.6489 54.4955C72.6489 53.3009 71.6805 52.3324 70.4858 52.3324C69.2911 52.3324 68.3226 53.3009 68.3226 54.4955C68.3226 55.6902 69.2911 56.6587 70.4858 56.6587Z" fill="#68E1FD"/>
<path d="M76.5452 56.6587C77.7398 56.6587 78.7083 55.6902 78.7083 54.4955C78.7083 53.3009 77.7398 52.3324 76.5452 52.3324C75.3505 52.3324 74.382 53.3009 74.382 54.4955C74.382 55.6902 75.3505 56.6587 76.5452 56.6587Z" fill="#FFD200"/>
<path opacity="0.08" d="M168.485 48.7272L137.335 48.8537L132.351 55.8681L85.3875 98.9983L89.2457 106.493L76.0581 111.693H63.2057L61.5043 135.633H76.5325L78.6577 121.654C91.2381 119.978 99.5302 108.448 99.5302 108.448L154.33 85.0137L147.372 68.9861L156.626 64.5586L157.138 67.4618C157.138 67.4618 162.141 66.083 161.933 61.4214C161.724 56.7599 161.287 50.9725 168.485 48.7272Z" fill="black"/>
<path d="M142.781 31.0614C142.015 37.1904 138.853 49.853 125.867 55.4949L127.765 58.6574C127.765 58.6574 145.836 52.9649 150.193 38.4174C152.148 31.871 150.902 29.0311 148.928 27.88C148.329 27.549 147.657 27.3711 146.973 27.3618C146.288 27.3526 145.612 27.5124 145.004 27.827C144.396 28.1417 143.875 28.6015 143.487 29.1657C143.099 29.7299 142.857 30.381 142.781 31.0614Z" fill="#68E1FD"/>
<path opacity="0.2" d="M142.781 31.0614C142.015 37.1904 138.853 49.853 125.867 55.4949L127.765 58.6574C127.765 58.6574 145.836 52.9649 150.193 38.4174C152.148 31.871 150.902 29.0311 148.928 27.88C148.329 27.549 147.657 27.3711 146.973 27.3618C146.288 27.3526 145.612 27.5124 145.004 27.827C144.396 28.1417 143.875 28.6015 143.487 29.1657C143.099 29.7299 142.857 30.381 142.781 31.0614Z" fill="white"/>
<path d="M144.438 21.3715L147.543 25.1602L150.276 22.2254L145.374 17.8738L144.438 21.3715Z" fill="#F4A28C"/>
<path d="M142.249 14.414C141.773 14.34 141.285 14.3864 140.831 14.5489C140.377 14.7114 139.971 14.9849 139.65 15.3446C139.329 15.7042 139.103 16.1384 138.992 16.6078C138.881 17.0772 138.89 17.5667 139.017 18.0319C139.593 20.2457 140.832 23.2627 143.198 22.2254C146.81 20.6441 144.912 15.9004 144.912 15.9004C144.19 15.1539 143.264 14.6369 142.249 14.414Z" fill="#F4A28C"/>
<path d="M147.05 44.0719L140.889 47.2344C140.362 47.5089 139.895 47.8868 139.517 48.3457C139.138 48.8046 138.856 49.335 138.687 49.9052C138.519 50.4755 138.466 51.0739 138.534 51.6648C138.601 52.2557 138.787 52.8269 139.08 53.3443L144.615 62.9267L147.309 61.0292L144.147 52.2881C144.093 52.1435 144.071 51.9893 144.081 51.8355C144.092 51.6817 144.134 51.5318 144.207 51.3957C144.279 51.2595 144.379 51.1402 144.501 51.0454C144.622 50.9507 144.762 50.8827 144.912 50.846L151.054 49.3469L149.959 52.2564C149.614 53.1655 149.492 54.1438 149.602 55.1099C149.712 56.0759 150.051 57.0016 150.592 57.8098L156.284 66.2979L158.441 64.976L155.703 57.4556C155.402 56.63 155.333 55.7378 155.503 54.8758C155.674 54.0138 156.077 53.215 156.67 52.5664L159.637 49.3153L147.05 44.0719Z" fill="#24285B"/>
<path d="M206.733 121.275H169.731V144.677H206.733V121.275Z" fill="#F2F2F2"/>
<path opacity="0.08" d="M169.826 121.275H163.811V135.633H169.826V121.275Z" fill="black"/>
<path d="M137.638 15.2173C137.638 15.2173 136.639 18.4304 140.118 17.6398C143.596 16.8491 143.331 15.7423 143.331 15.7423C143.331 15.7423 143.596 19.5373 145.336 18.696C147.075 17.8548 146.076 15.7865 145.336 14.3697C144.596 12.9529 144.159 12.5292 142.173 12.3204C140.187 12.1117 137.885 13.2692 137.638 15.2173Z" fill="#24285B"/>
<path d="M143.388 17.956C143.388 17.956 143.242 16.8744 144.286 17.0831C145.33 17.2919 144.918 18.7972 144.286 18.9047C143.653 19.0123 143.388 17.956 143.388 17.956Z" fill="#F4A28C"/>
<path d="M51.6942 100.187L53.2439 104.836L49.569 107.17L48.2408 99.1121L51.6942 100.187Z" fill="#F4A28C"/>
<path d="M46.9821 94.6212C47.1747 94.1792 47.4747 93.7923 47.8547 93.4955C48.2347 93.1988 48.6828 93.0015 49.1584 92.9218C49.6339 92.842 50.1218 92.8822 50.5779 93.0387C51.034 93.1952 51.4438 93.463 51.7701 93.818C53.3324 95.4878 55.2172 98.1506 53.0857 99.5927C49.8157 101.806 46.8176 97.6952 46.8176 97.6952C46.566 96.677 46.6232 95.6068 46.9821 94.6212Z" fill="#F4A28C"/>
<path d="M49.373 97.4739C49.373 97.4739 48.5317 96.7718 48.1522 97.7649C47.7727 98.7579 49.2528 99.2449 49.6955 98.7389C50.1383 98.2329 49.373 97.4739 49.373 97.4739Z" fill="#F4A28C"/>
<path d="M146.885 24.3568L150.276 22.2253C150.276 22.2253 161.287 18.4619 164.766 21.9217C168.245 25.3815 168.492 38.4363 159.637 49.3153L147.05 44.0719C147.05 44.0719 147.303 37.8101 145.209 36.2289C143.116 34.6476 140.541 29.9039 146.885 24.3568Z" fill="#68E1FD"/>
<path d="M145.247 62.4523C145.247 62.4523 144.558 65.6528 145.791 65.5389C147.025 65.4251 147.309 60.9976 147.309 60.9976L145.247 62.4523Z" fill="#68E1FD"/>
<path d="M156.348 66.1525C156.348 66.1525 155.658 69.3466 156.892 69.2391C158.125 69.1316 158.403 64.6978 158.403 64.6978L156.348 66.1525Z" fill="#68E1FD"/>
<path d="M173.817 47.1268C173.817 47.1268 171.692 48.044 172.476 49.0939C173.261 50.1439 175.949 48.7271 175.949 48.7271L176.113 47.1268H173.817Z" fill="#F4A28C"/>
<path d="M126.127 55.868C126.127 55.868 122.635 56.1527 123.369 56.9559C123.73 57.3909 124.184 57.739 124.697 57.9743C124.697 57.9743 122.167 60.8015 124.008 61.3645C125.849 61.9274 127.645 58.4044 127.645 58.4044L126.127 55.868Z" fill="#F4A28C"/>
<path d="M133.289 54.2253L71.6102 82.6924L82.9003 107.154L144.579 78.6873L133.289 54.2253Z" fill="#FFD200"/>
<path opacity="0.58" d="M128.215 64.3078L98.6171 77.9089L100.466 81.932L130.064 68.3308L128.215 64.3078Z" fill="white"/>
<path opacity="0.58" d="M132.042 72.6441L102.444 86.2452L104.293 90.2683L133.891 76.6671L132.042 72.6441Z" fill="white"/>
<path d="M89.8403 96.7276C93.7247 96.7276 96.8737 93.5786 96.8737 89.6942C96.8737 85.8097 93.7247 82.6608 89.8403 82.6608C85.9558 82.6608 82.8069 85.8097 82.8069 89.6942C82.8069 93.5786 85.9558 96.7276 89.8403 96.7276Z" fill="white"/>
<path d="M182.312 128.441L177.378 133.235L182.312 138.036" stroke="#A5A5A5" stroke-width="2.03" stroke-linecap="round" stroke-linejoin="round"/>
<path d="M192.982 128.441L197.916 133.235L192.982 138.036" stroke="#A5A5A5" stroke-width="2.03" stroke-linecap="round" stroke-linejoin="round"/>
<path opacity="0.58" d="M121.238 41.0612C121.238 41.0612 115.159 39.4293 113.85 33.7874C113.85 33.7874 123.243 31.8457 123.553 41.5482L121.238 41.0612Z" fill="#68E1FD"/>
<path opacity="0.73" d="M121.978 40.454C121.978 40.454 117.708 33.7685 121.415 27.4878C121.415 27.4878 128.581 31.9975 125.444 40.454H121.978Z" fill="#68E1FD"/>
<path d="M123.072 40.454C123.072 40.454 125.279 33.37 132.047 31.9974C132.047 31.9974 133.312 36.5894 127.695 40.454H123.072Z" fill="#68E1FD"/>
<path d="M189.567 128.441L184.835 138.036" stroke="#A5A5A5" stroke-width="2.03" stroke-linecap="round" stroke-linejoin="round"/>
<path opacity="0.63" d="M84.755 63.983H66.2164V67.4618H84.755V63.983Z" fill="#CECECE"/>
<path d="M48.7467 106.253C48.7467 106.253 37.8867 112.831 36.4636 128.264C36.3449 129.541 36.6889 130.819 37.4331 131.863C38.1772 132.908 39.272 133.651 40.5179 133.956L53.2438 137.087L48.7467 106.253Z" fill="#68E1FD"/>
<path opacity="0.2" d="M48.7467 106.253C48.7467 106.253 37.8867 112.831 36.4636 128.264C36.3449 129.541 36.6889 130.819 37.4331 131.863C38.1772 132.908 39.272 133.651 40.5179 133.956L53.2438 137.087L48.7467 106.253Z" fill="white"/>
<path d="M118.67 40.3148L119.935 48.7271H127.683L128.79 40.3148H118.67Z" fill="#24285B"/>
<path d="M49.8346 96.2658C49.8346 96.2658 51.5677 101.237 48.538 100.927C45.5083 100.617 47.1718 98.4796 45.6665 96.2658C44.1611 94.0521 44.9581 92.5594 47.2477 90.6176C48.304 89.7258 49.0124 89.3146 49.4298 88.8403C49.6074 88.6301 49.8353 88.4684 50.0924 88.3703C50.3494 88.2723 50.6271 88.241 50.8995 88.2796C51.1719 88.3181 51.4301 88.4252 51.6498 88.5907C51.8696 88.7563 52.0437 88.9749 52.1559 89.2261C52.9402 91.1362 52.9465 93.6915 49.8346 96.2658Z" fill="#24285B"/>
<path opacity="0.08" d="M189.921 71.6995H162.129V115.399H189.921V71.6995Z" fill="black"/>
<path d="M51.0219 123.645L30.0516 129.05L33.9257 144.081L54.896 138.676L51.0219 123.645Z" fill="#FFD200"/>
<path opacity="0.08" d="M42.4344 125.607L44.838 135.633L44.2118 141.154L49.8347 139.7L51.5108 135.221L46.1093 124.652L42.4344 125.607Z" fill="black"/>
<path d="M46.2357 109.485C46.7517 108.34 47.5088 107.32 48.4552 106.495C49.4017 105.67 50.5151 105.059 51.7195 104.703C56.3621 103.306 65.1791 100.383 67.785 104.703C71.3523 110.649 65.8875 133.994 65.8875 133.994L50.2837 135.203C50.2837 135.203 41.6754 119.744 46.2357 109.485Z" fill="#68E1FD"/>
<path d="M65.8622 134.013L63.8066 160.838H60.5619L57.665 139.997L50.4925 135.222L65.8622 134.013Z" fill="#24285B"/>
<path d="M50.4925 135.221L46.0144 160.838H49.4932L57.0073 139.56L50.4925 135.221Z" fill="#24285B"/>
<path d="M58.4683 108.277C58.2579 107.619 58.2046 106.92 58.3125 106.238C58.4205 105.555 58.6868 104.907 59.0901 104.346C59.4934 103.784 60.0224 103.325 60.635 103.005C61.2475 102.685 61.9264 102.513 62.6175 102.502C64.6035 102.439 66.8869 102.781 68.6389 104.197C72.5414 107.36 85.3369 109.51 96.8863 98.9413L99.1064 102.35C99.1064 102.35 85.9884 119.428 65.4448 114.52C63.8829 114.166 62.4342 113.427 61.2302 112.371C60.0263 111.315 59.1051 109.975 58.5505 108.473C58.5189 108.41 58.4936 108.34 58.4683 108.277Z" fill="#68E1FD"/>
<path opacity="0.2" d="M58.4683 108.277C58.2579 107.619 58.2046 106.92 58.3125 106.238C58.4205 105.555 58.6868 104.907 59.0901 104.346C59.4934 103.784 60.0224 103.325 60.635 103.005C61.2475 102.685 61.9264 102.513 62.6175 102.502C64.6035 102.439 66.8869 102.781 68.6389 104.197C72.5414 107.36 85.3369 109.51 96.8863 98.9413L99.1064 102.35C99.1064 102.35 85.9884 119.428 65.4448 114.52C63.8829 114.166 62.4342 113.427 61.2302 112.371C60.0263 111.315 59.1051 109.975 58.5505 108.473C58.5189 108.41 58.4936 108.34 58.4683 108.277Z" fill="white"/>
<path opacity="0.08" d="M53.0668 104.292C53.0668 104.292 45.7677 127.802 66.8426 129.358L65.8622 134.013L50.2585 135.221C46.6704 128.9 44.8505 121.73 44.9897 114.463C44.9897 114.463 45.1226 108.467 49.3477 105.817C50.4651 105.05 51.7329 104.531 53.0668 104.292Z" fill="black"/>
<path d="M46.6469 160.838L44.4901 162.425C44.4082 162.484 44.3471 162.567 44.3155 162.663C44.284 162.758 44.2837 162.861 44.3147 162.957C44.3457 163.053 44.4064 163.136 44.4879 163.195C44.5695 163.254 44.6677 163.286 44.7684 163.286H48.3863C48.5116 163.284 48.6313 163.233 48.7199 163.145C48.8085 163.056 48.859 162.936 48.8607 162.811V160.838H46.6469Z" fill="#68E1FD"/>
<path d="M63.718 160.838L65.7483 162.425C65.8276 162.487 65.8856 162.572 65.9141 162.668C65.9427 162.764 65.9404 162.867 65.9076 162.962C65.8749 163.057 65.8132 163.139 65.7313 163.197C65.6494 163.255 65.5514 163.286 65.4511 163.286H62.8768C62.5122 163.284 62.1631 163.138 61.9059 162.879C61.6487 162.621 61.5043 162.271 61.5043 161.907V160.838H63.718Z" fill="#68E1FD"/>
<path d="M214.424 63.1924H168.485V110.364H214.424V63.1924Z" fill="#F2F2F2"/>
<path d="M205.088 74.8303H176.784V76.5254H205.088V74.8303Z" fill="#A5A5A5"/>
<path d="M205.088 85.5386H176.784V87.2337H205.088V85.5386Z" fill="#A5A5A5"/>
<path d="M205.088 96.2468H176.784V97.9419H205.088V96.2468Z" fill="#A5A5A5"/>
<path d="M203.621 71.6995H203.614C202.245 71.6995 201.135 72.8095 201.135 74.1789V77.1769C201.135 78.5462 202.245 79.6563 203.614 79.6563H203.621C204.99 79.6563 206.1 78.5462 206.1 77.1769V74.1789C206.1 72.8095 204.99 71.6995 203.621 71.6995Z" fill="#24285B"/>
<path d="M192.407 82.4077H192.4C191.031 82.4077 189.921 83.5178 189.921 84.8871V87.8852C189.921 89.2545 191.031 90.3646 192.4 90.3646H192.407C193.776 90.3646 194.886 89.2545 194.886 87.8852V84.8871C194.886 83.5178 193.776 82.4077 192.407 82.4077Z" fill="#68E1FD"/>
<path d="M184.817 93.1223H184.81C183.441 93.1223 182.331 94.2324 182.331 95.6017V98.5998C182.331 99.9691 183.441 101.079 184.81 101.079H184.817C186.186 101.079 187.296 99.9691 187.296 98.5998V95.6017C187.296 94.2324 186.186 93.1223 184.817 93.1223Z" fill="#FFD200"/>
<path d="M155.184 112.92H103.338V124.735H155.184V112.92Z" fill="white"/>
<path d="M155.184 112.92H137.505V124.735H155.184V112.92Z" fill="#24285B"/>
<path d="M98.5245 101.471C98.5245 101.471 101.232 102.357 101.807 98.3721L97.2089 99.4536L98.5245 101.471Z" fill="#F4A28C"/>
<path opacity="0.08" d="M152.236 46.2287C152.236 46.2287 157.739 45.1787 159.637 37.5887C161.534 29.9987 157.493 23.971 161.395 23.0412C165.298 22.1115 166.917 32.0101 166.917 32.0101C166.917 32.0101 167.069 39.7519 159.637 49.3279L152.236 46.2287Z" fill="black"/>
<path d="M163.925 21.2449C167.163 22.3961 172.223 24.6857 175.639 28.563C176.608 29.6658 177.325 30.9663 177.741 32.3741C178.158 33.7819 178.262 35.2635 178.049 36.7159L176.518 47.1268H172.881L173.046 37.6393C173.054 36.6366 172.739 35.6577 172.148 34.8478C171.557 34.0378 170.721 33.4398 169.763 33.1423C165.835 31.9405 159.807 29.2714 159.801 24.2114C159.794 23.7128 159.908 23.22 160.133 22.7748C160.357 22.3295 160.686 21.945 161.09 21.6539C161.495 21.3627 161.964 21.1735 162.458 21.1023C162.951 21.0311 163.454 21.08 163.925 21.2449Z" fill="#68E1FD"/>
<path opacity="0.2" d="M163.925 21.2449C167.163 22.3961 172.223 24.6857 175.639 28.563C176.608 29.6658 177.325 30.9663 177.741 32.3741C178.158 33.7819 178.262 35.2635 178.049 36.7159L176.518 47.1268H172.881L173.046 37.6393C173.054 36.6366 172.739 35.6577 172.148 34.8478C171.557 34.0378 170.721 33.4398 169.763 33.1423C165.835 31.9405 159.807 29.2714 159.801 24.2114C159.794 23.7128 159.908 23.22 160.133 22.7748C160.357 22.3295 160.686 21.945 161.09 21.6539C161.495 21.3627 161.964 21.1735 162.458 21.1023C162.951 21.0311 163.454 21.08 163.925 21.2449Z" fill="white"/>
<path opacity="0.08" d="M154.962 104.292H131.351V107.164H154.962V104.292Z" fill="black"/>
</svg>
