<svg width="253" height="191" viewBox="0 0 253 191" fill="none" xmlns="http://www.w3.org/2000/svg">
<path d="M74.7994 62.737V40.0049C74.8078 38.3329 75.4779 36.7322 76.6631 35.5529C77.8484 34.3736 79.4524 33.7115 81.1244 33.7115H179.63C181.302 33.7115 182.906 34.3736 184.091 35.5529C185.277 36.7322 185.947 38.3329 185.955 40.0049V75.1846" stroke="#E6E6E6" stroke-width="1.015" stroke-linecap="round" stroke-linejoin="round" stroke-dasharray="3.05 10.15"/>
<path d="M153.906 23.0603H123.243V44.3629H153.906V23.0603Z" fill="#E6E6E6"/>
<path d="M131.149 33.5092C132.072 33.5092 132.199 33.0032 132.199 32.5478C132.19 32.1833 132.156 31.8198 132.098 31.4599C132.034 31.1049 131.998 30.7453 131.99 30.3847C131.99 29.1892 132.768 28.6832 133.888 28.6832H134.166V29.398H133.932C133.167 29.398 132.907 29.8154 132.907 30.5112C132.912 30.8208 132.942 31.1296 132.996 31.4346C133.052 31.7606 133.081 32.0906 133.084 32.4213C133.127 32.7277 133.056 33.0391 132.885 33.2967C132.713 33.5543 132.454 33.7401 132.155 33.8191C132.458 33.9025 132.719 34.0957 132.887 34.3612C133.056 34.6266 133.119 34.9452 133.065 35.2549C133.063 35.5836 133.033 35.9115 132.977 36.2353C132.924 36.5383 132.895 36.8449 132.888 37.1524C132.888 37.8798 133.186 38.2783 133.913 38.2783H134.147V39.0499H133.869C132.793 39.0499 131.971 38.5819 131.971 37.2726C131.979 36.9161 132.015 36.5608 132.079 36.21C132.144 35.8528 132.182 35.4913 132.193 35.1284C132.193 34.7299 132.066 34.167 131.143 34.167L131.149 33.5092Z" fill="#9E9E9E"/>
<path d="M146.348 34.1986C145.424 34.1986 145.298 34.7046 145.298 35.1537C145.306 35.5183 145.34 35.8818 145.399 36.2416C145.46 36.5992 145.496 36.9606 145.507 37.3232C145.507 38.5123 144.729 39.0183 143.609 39.0183H143.337V38.3036H143.578C144.343 38.3036 144.602 37.8924 144.602 37.1904C144.597 36.8828 144.568 36.5761 144.514 36.2732C144.456 35.9473 144.424 35.6174 144.419 35.2865C144.375 34.9783 144.446 34.6646 144.618 34.4055C144.791 34.1465 145.053 33.9602 145.355 33.8824C145.052 33.8045 144.789 33.6172 144.616 33.3568C144.443 33.0963 144.373 32.7811 144.419 32.4719C144.423 32.1409 144.455 31.8109 144.514 31.4852C144.568 31.176 144.597 30.863 144.602 30.5491C144.602 29.8281 144.305 29.4233 143.578 29.4233H143.343V28.6832H143.615C144.691 28.6832 145.513 29.1513 145.513 30.4606C145.503 30.8169 145.467 31.172 145.405 31.5232C145.347 31.8703 145.313 32.2212 145.304 32.5731C145.304 32.9779 145.431 33.5345 146.354 33.5345L146.348 34.1986Z" fill="#9E9E9E"/>
<path d="M107.361 52.1932H43.6108V115.943H107.361V52.1932Z" fill="#24285B"/>
<path d="M82.7183 80.1624H62.238V82.452H82.7183V80.1624Z" fill="#68E1FD"/>
<path d="M86.4184 73.7804H68.1139V76.07H86.4184V73.7804Z" fill="#FFD200"/>
<path d="M95.1153 97.9735H85.5646V100.263H95.1153V97.9735Z" fill="#FFD200"/>
<path d="M85.4634 91.5283H75.9127V93.818H85.4634V91.5283Z" fill="#FFD200"/>
<path d="M92.5157 85.703H68.1139V87.9927H92.5157V85.703Z" fill="#68E1FD"/>
<path d="M63.8192 85.703H54.6417V87.9927H63.8192V85.703Z" fill="white"/>
<path d="M72.9589 91.7245H63.7813V94.0141H72.9589V91.7245Z" fill="white"/>
<path d="M64.2683 104.008H55.0908V106.297H64.2683V104.008Z" fill="white"/>
<path d="M57.9497 80.1624H48.7721V82.452H57.9497V80.1624Z" fill="white"/>
<path d="M47.7854 57.1393C48.3827 57.1393 48.867 56.6551 48.867 56.0578C48.867 55.4604 48.3827 54.9762 47.7854 54.9762C47.188 54.9762 46.7038 55.4604 46.7038 56.0578C46.7038 56.6551 47.188 57.1393 47.7854 57.1393Z" fill="white"/>
<path d="M50.9984 57.1393C51.5958 57.1393 52.08 56.6551 52.08 56.0578C52.08 55.4604 51.5958 54.9762 50.9984 54.9762C50.4011 54.9762 49.9169 55.4604 49.9169 56.0578C49.9169 56.6551 50.4011 57.1393 50.9984 57.1393Z" fill="#68E1FD"/>
<path d="M54.0218 57.1393C54.6192 57.1393 55.1034 56.6551 55.1034 56.0578C55.1034 55.4604 54.6192 54.9762 54.0218 54.9762C53.4245 54.9762 52.9402 55.4604 52.9402 56.0578C52.9402 56.6551 53.4245 57.1393 54.0218 57.1393Z" fill="#FFD200"/>
<path d="M57.9497 62.7369H48.7721V65.0266H57.9497V62.7369Z" fill="white"/>
<path d="M63.8192 68.4674H54.6417V70.7571H63.8192V68.4674Z" fill="white"/>
<path d="M86.4184 68.4674H68.1139V70.7571H86.4184V68.4674Z" fill="#FFD200"/>
<path d="M63.8192 73.7804H54.6417V76.07H63.8192V73.7804Z" fill="white"/>
<path d="M80.5236 62.7369H61.6182V65.0266H80.5236V62.7369Z" fill="#68E1FD"/>
<path d="M58.2089 97.9735H49.0314V100.263H58.2089V97.9735Z" fill="white"/>
<path d="M80.7766 97.9735H61.8712V100.263H80.7766V97.9735Z" fill="#68E1FD"/>
<path d="M86.8043 103.995H67.8989V106.285H86.8043V103.995Z" fill="#68E1FD"/>
<path d="M97.8983 62.7369H84.4767V65.0266H97.8983V62.7369Z" fill="#68E1FD"/>
<path d="M124.508 75.1846L127.828 93.6473L118.657 94.3303L120.491 79.5235L124.508 75.1846Z" fill="#F4A28C"/>
<path opacity="0.31" d="M120.105 81.8259C121.086 81.5625 121.966 81.0145 122.635 80.251C122.635 80.251 122.579 82.8695 119.758 85.5134L120.105 81.8259Z" fill="#CE8172"/>
<path d="M118.126 74.1536C118.126 74.1536 117.24 78.4293 117.632 81.3894C117.668 81.6772 117.761 81.955 117.905 82.2067C118.049 82.4584 118.242 82.679 118.472 82.8555C118.702 83.0321 118.965 83.1612 119.245 83.2352C119.526 83.3093 119.818 83.3268 120.105 83.2869C121.592 83.0718 123.54 82.3445 124.293 80.1244L126.032 76.4875C126.304 75.7225 126.333 74.8918 126.113 74.1101C125.893 73.3283 125.436 72.6341 124.805 72.1233C122.566 70.0423 118.531 71.5224 118.126 74.1536Z" fill="#F4A28C"/>
<path d="M117.708 76.8734L116.304 78.4041C116.224 78.4903 116.167 78.5954 116.138 78.7096C116.11 78.8239 116.111 78.9435 116.141 79.0572C116.172 79.171 116.23 79.2752 116.312 79.3601C116.393 79.4449 116.495 79.5077 116.608 79.5426L118.233 80.0549L117.708 76.8734Z" fill="#F4A28C"/>
<path d="M125.867 80.9719L127.379 75.2288C127.379 75.2288 130.693 74.6659 129.7 72.5027C128.707 70.3396 127.379 71.7754 127.335 69.2896C127.291 66.8039 125.273 66.3042 123.837 67.6957C122.401 69.0872 123.072 67.1391 121.307 66.8735C119.542 66.6078 119.049 67.3985 119.005 68.771C118.961 70.1435 116.393 68.6761 115.722 70.3902C115.052 72.1043 114.963 73.7677 119.403 74.0524C123.843 74.337 120.656 77.9739 125.867 80.9719Z" fill="#24285B"/>
<path d="M122.3 78.404C122.3 78.404 122.528 76.7405 123.768 77.0125C125.007 77.2845 124.691 79.7006 122.958 79.7259L122.3 78.404Z" fill="#F4A28C"/>
<path opacity="0.45" d="M125.589 167.245C159.389 167.245 186.79 161.077 186.79 153.469C186.79 145.861 159.389 139.693 125.589 139.693C91.789 139.693 64.3885 145.861 64.3885 153.469C64.3885 161.077 91.789 167.245 125.589 167.245Z" fill="#E6E6E6"/>
<path d="M116.241 91.636C116.241 91.636 90.3589 84.1598 90.4791 102.958C90.574 117.157 106.5 147.302 106.5 147.302H139.39C139.39 147.302 164.342 109.03 152.205 96.7023C140.067 84.3749 137.284 94.9756 116.241 91.636Z" fill="#68E1FD"/>
<path d="M106.45 151.907L126.462 157.302L144.216 148.295L146.911 143.488H129.017H100.549L106.45 151.907Z" fill="#24285B"/>
<path opacity="0.08" d="M137.531 94.3303C137.531 94.3303 127.828 99.2006 130.611 124.437C131.396 131.54 129.017 133.292 129.017 133.292L101.282 136.069L106.5 147.296H139.39C139.39 147.296 153.824 123.805 154.962 111.705C156.101 99.6054 137.531 94.3303 137.531 94.3303Z" fill="black"/>
<path d="M122.072 151.901C122.072 151.901 128.809 154.26 126.5 157.302C124.191 160.344 120.529 155.291 120.529 155.291L122.072 151.901Z" fill="#68E1FD"/>
<path d="M122.25 150.724C122.25 150.724 95.0521 136.809 92.7055 144.222C90.359 151.635 109.151 155.917 121.257 156.36L122.25 150.724Z" fill="#24285B"/>
<path d="M128.859 151.818C128.859 151.818 150.573 130.313 155.026 136.638C159.479 142.963 142.92 152.773 131.516 156.878L128.859 151.818Z" fill="#24285B"/>
<path d="M129.713 153.438C129.713 153.438 123.281 159.168 127.006 160.857C130.731 162.545 131.516 156.878 131.516 156.878L129.713 153.438Z" fill="#68E1FD"/>
<path d="M135.753 99.5674C135.652 92.3253 144.387 88.4734 149.605 93.4891C153.432 97.1703 157.164 102.692 159.004 110.877C163.653 131.49 172.008 128.334 176.082 121.831C180.155 115.329 179.371 101.035 179.371 101.035L186.79 101.174C186.79 101.174 193.159 138.289 165.879 139.668C144.88 140.724 135.988 116.93 135.753 99.5674Z" fill="#68E1FD"/>
<path opacity="0.54" d="M135.753 99.5674C135.652 92.3253 144.387 88.4734 149.605 93.4891C153.432 97.1703 157.164 102.692 159.004 110.877C163.653 131.49 172.008 128.334 176.082 121.831C180.155 115.329 179.371 101.035 179.371 101.035L186.79 101.174C186.79 101.174 193.159 138.289 165.879 139.668C144.88 140.724 135.988 116.93 135.753 99.5674Z" fill="white"/>
<path d="M187.435 86.0573H184.443V112.338H187.435V86.0573Z" fill="#24285B"/>
<path d="M109.252 140.155L106.93 119.017H142.426L138.884 141.237L139.39 144.083L108.879 144.323L109.252 140.155Z" fill="#FFD200"/>
<path opacity="0.28" d="M70.296 115.937C70.296 115.937 74.5591 90.0484 102.029 90.3773L79.9986 115.937H70.296Z" fill="black"/>
<path d="M125.026 133.444C126.707 133.444 128.069 132.082 128.069 130.402C128.069 128.722 126.707 127.359 125.026 127.359C123.346 127.359 121.984 128.722 121.984 130.402C121.984 132.082 123.346 133.444 125.026 133.444Z" fill="white"/>
<path d="M102.693 91.7561C101.095 90.9211 99.2503 90.6878 97.495 91.0988C95.7396 91.5098 94.1903 92.5376 93.1293 93.9952C87.7277 101.212 76.0518 118.372 76.5641 130.819C77.2599 146.98 112.503 144.734 112.503 144.734L111.807 138.624C111.807 138.624 90.4475 137.087 96.3424 126.367C100.346 119.074 113.066 97.4423 102.693 91.7561Z" fill="#68E1FD"/>
<path opacity="0.54" d="M102.693 91.7561C101.095 90.9211 99.2503 90.6878 97.495 91.0988C95.7396 91.5098 94.1903 92.5376 93.1293 93.9952C87.7277 101.212 76.0518 118.372 76.5641 130.819C77.2599 146.98 112.503 144.734 112.503 144.734L111.807 138.624C111.807 138.624 90.4475 137.087 96.3424 126.367C100.346 119.074 113.066 97.4423 102.693 91.7561Z" fill="white"/>
<path d="M181.237 101.067C181.237 101.067 180.402 94.6656 186.069 95.412C191.736 96.1583 191.686 100.706 186.79 101.168L181.237 101.067Z" fill="#F4A28C"/>
<path d="M201.926 67.9235H169.535V88.6315H201.926V67.9235Z" fill="#FFD200"/>
<path d="M181.528 83.0339C181.358 83.0349 181.194 82.9793 181.059 82.8758L176.145 78.9923C176.056 78.9204 175.984 78.8299 175.934 78.7272C175.883 78.6245 175.856 78.512 175.854 78.3977C175.855 78.2838 175.88 78.1713 175.93 78.0685C175.979 77.9657 176.05 77.8751 176.139 77.8032L181.053 73.8501C181.13 73.782 181.22 73.7303 181.318 73.6981C181.415 73.6659 181.518 73.6538 181.621 73.6626C181.723 73.6713 181.822 73.7008 181.913 73.7491C182.004 73.7975 182.084 73.8637 182.148 73.9439C182.212 74.024 182.259 74.1163 182.287 74.2153C182.315 74.3143 182.322 74.4178 182.308 74.5196C182.294 74.6214 182.26 74.7194 182.208 74.8076C182.155 74.8958 182.085 74.9724 182.002 75.0328L177.834 78.3914L182.002 81.6804C182.159 81.8069 182.259 81.9901 182.281 82.1902C182.304 82.3903 182.247 82.5912 182.122 82.7493C182.052 82.8395 181.961 82.9121 181.858 82.9615C181.755 83.0109 181.642 83.0357 181.528 83.0339Z" fill="white"/>
<path d="M190.382 83.0339C190.225 83.0344 190.071 82.9858 189.942 82.8947C189.813 82.8037 189.716 82.6748 189.664 82.5259C189.611 82.377 189.607 82.2156 189.651 82.0641C189.695 81.9125 189.785 81.7784 189.908 81.6803L194.076 78.3913L189.902 75.0327C189.746 74.9053 189.647 74.7217 189.626 74.5216C189.604 74.3216 189.663 74.1212 189.788 73.9638C189.851 73.886 189.928 73.8214 190.016 73.7735C190.103 73.7257 190.199 73.6956 190.299 73.6851C190.398 73.6745 190.498 73.6836 190.594 73.7119C190.69 73.7402 190.779 73.7871 190.857 73.85L195.771 77.8031C195.86 77.8744 195.931 77.9651 195.979 78.0681C196.028 78.1712 196.052 78.2839 196.05 78.3976C196.049 78.5115 196.023 78.6238 195.973 78.7266C195.924 78.8293 195.853 78.92 195.765 78.9922L190.851 82.8757C190.717 82.9792 190.552 83.0348 190.382 83.0339Z" fill="white"/>
<path d="M183.887 83.0339C183.78 83.0343 183.675 83.0128 183.577 82.9707C183.486 82.9297 183.404 82.8711 183.335 82.7983C183.267 82.7256 183.214 82.64 183.178 82.5466C183.143 82.4532 183.127 82.3537 183.13 82.2539C183.133 82.1541 183.156 82.0559 183.197 81.965L186.777 74.122C186.861 73.9383 187.015 73.7955 187.204 73.7249C187.393 73.6543 187.602 73.6618 187.786 73.7457C187.97 73.8295 188.113 73.983 188.183 74.1721C188.254 74.3613 188.246 74.5708 188.162 74.7545L184.582 82.5912C184.52 82.7232 184.422 82.8349 184.299 82.9133C184.176 82.9917 184.033 83.0335 183.887 83.0339Z" fill="white"/>
<path d="M111.953 140.041C111.953 140.041 117.367 138.144 118.663 140.389C119.96 142.634 118.031 145.689 112.49 144.734L111.953 140.041Z" fill="#F4A28C"/>
</svg>
