<svg width="220" height="166" viewBox="0 0 220 166" fill="none" xmlns="http://www.w3.org/2000/svg">
<path d="M97.9715 47.5249L16.632 94.8249C15.8412 95.2843 15.1861 95.9449 14.7333 96.7395C14.2805 97.5342 14.0461 98.4345 14.0539 99.349C14.0617 100.264 14.3115 101.16 14.7778 101.947C15.2442 102.733 15.9105 103.383 16.709 103.828L116.259 159.549C117.462 160.222 118.816 160.581 120.194 160.592C121.573 160.604 122.932 160.268 124.146 159.615L200.646 118.469C201.62 117.944 202.438 117.169 203.014 116.223C203.59 115.278 203.904 114.196 203.923 113.089C203.943 111.982 203.667 110.89 203.125 109.924C202.583 108.959 201.794 108.155 200.838 107.596L97.9715 47.5249Z" fill="#AAACF9"/>
<path opacity="0.32" d="M86.2345 120.136C90.7885 115.461 95.6835 111.132 100.017 106.276L82.5 97.0029L45.3365 116.869C52.283 120.51 62.4525 128.298 72.38 135.046C77 130.074 81.499 124.998 86.2345 120.136Z" fill="url(#paint0_linear_18_408)"/>
<path opacity="0.32" d="M57.981 99.2909C65.6315 93.6314 73.2545 87.9279 81.235 82.7579L64.834 74.0789L30.283 95.4079C35.5245 98.1579 40.0015 101.804 47.4265 107.051C50.9355 104.444 54.45 101.881 57.981 99.2909Z" fill="url(#paint1_linear_18_408)"/>
<path opacity="0.32" d="M101.486 132.549C109.736 128.111 127.435 110.874 135.586 106.336L104.5 89.886L67.375 109.757C75.9935 114.256 89.5675 125.174 101.486 132.549Z" fill="url(#paint2_linear_18_408)"/>
<path d="M118.217 83.3794L107.767 88.4119C107.374 88.6019 107.04 88.895 106.801 89.2599C106.562 89.6248 106.427 90.0478 106.409 90.4838C106.392 90.9197 106.493 91.3523 106.702 91.7352C106.911 92.1181 107.22 92.437 107.596 92.6579L132.374 107.106C132.91 107.419 133.546 107.513 134.149 107.369C134.753 107.224 135.277 106.853 135.613 106.331L141.636 96.9809" fill="#56403D"/>
<path d="M170.731 56.5779L85.3765 7.4079C84.9559 7.15579 84.4756 7.02073 83.9853 7.01669C83.4949 7.01266 83.0124 7.13981 82.5878 7.38496C82.1631 7.63011 81.8117 7.98435 81.57 8.41098C81.3283 8.83761 81.205 9.32111 81.213 9.8114V62.0614C81.2132 62.4373 81.3124 62.8066 81.5007 63.132C81.689 63.4574 81.9597 63.7274 82.2855 63.9149L173.134 116.357C173.292 116.448 173.47 116.496 173.652 116.496C173.833 116.496 174.012 116.448 174.169 116.357C174.326 116.266 174.457 116.136 174.547 115.978C174.638 115.821 174.686 115.642 174.685 115.461V63.4199C174.686 62.0325 174.321 60.6695 173.626 59.4683C172.932 58.2671 171.933 57.2701 170.731 56.5779Z" fill="#68E1FD"/>
<path d="M86.8615 12.0334L167.711 58.5524C168.575 59.0491 169.293 59.7646 169.792 60.6268C170.291 61.4891 170.554 62.4676 170.555 63.4639V100.924C170.555 101.283 170.461 101.636 170.282 101.947C170.103 102.257 169.846 102.516 169.535 102.696C169.225 102.876 168.873 102.971 168.514 102.972C168.155 102.973 167.803 102.879 167.492 102.701L85.03 55.4064C84.7225 55.2295 84.4671 54.9747 84.2894 54.6676C84.1117 54.3606 84.0181 54.0121 84.018 53.6574V13.6779C84.0181 13.3451 84.1057 13.0182 84.272 12.73C84.4383 12.4417 84.6775 12.2023 84.9655 12.0357C85.2536 11.8691 85.5804 11.7812 85.9132 11.7808C86.246 11.7804 86.573 11.8675 86.8615 12.0334Z" fill="white"/>
<path d="M121.742 82.5324C122.219 82.4405 122.605 82.3636 122.605 82.3606C122.604 82.3576 122.217 82.4297 121.74 82.5216C121.262 82.6135 120.876 82.6904 120.877 82.6934C120.877 82.6964 121.264 82.6243 121.742 82.5324Z" fill="#AB643C"/>
<path d="M164.417 60.6535C164.903 60.6535 165.297 60.225 165.297 59.6965C165.297 59.168 164.903 58.7395 164.417 58.7395C163.931 58.7395 163.537 59.168 163.537 59.6965C163.537 60.225 163.931 60.6535 164.417 60.6535Z" fill="#659FE4"/>
<path d="M161.612 59.2619C162.098 59.2619 162.492 58.8334 162.492 58.3049C162.492 57.7764 162.098 57.3479 161.612 57.3479C161.126 57.3479 160.732 57.7764 160.732 58.3049C160.732 58.8334 161.126 59.2619 161.612 59.2619Z" fill="#C5E9FF"/>
<path d="M73.5625 102.618L73.557 103.141L73.821 103.471" fill="#ADCEE1"/>
<path d="M84.1005 96.2934L73.8595 102.58C73.7623 102.635 73.6814 102.715 73.6252 102.812C73.5689 102.908 73.5393 103.018 73.5393 103.13C73.5393 103.242 73.5689 103.351 73.6252 103.448C73.6814 103.545 73.7623 103.625 73.8595 103.68L89.3255 112.513C89.5412 112.637 89.7859 112.703 90.035 112.703C90.2841 112.703 90.5288 112.637 90.7445 112.513L100.952 106.556C101.695 105.951 101.645 104.807 100.952 104.758L85.5525 96.2714C85.3302 96.1462 85.0786 96.0822 84.8235 96.0861C84.5684 96.09 84.3189 96.1615 84.1005 96.2934Z" fill="#88D3D8"/>
<path d="M84.1005 95.8588L73.8595 102.156C73.7623 102.212 73.6814 102.291 73.6252 102.388C73.5689 102.485 73.5393 102.595 73.5393 102.706C73.5393 102.818 73.5689 102.928 73.6252 103.024C73.6814 103.121 73.7623 103.201 73.8595 103.256L89.342 112.056C89.5577 112.181 89.8024 112.246 90.0515 112.246C90.3006 112.246 90.5453 112.181 90.761 112.056L100.952 106.122C101.072 106.053 101.172 105.954 101.241 105.834C101.311 105.714 101.347 105.578 101.347 105.44C101.347 105.301 101.311 105.166 101.241 105.046C101.172 104.926 101.072 104.827 100.952 104.758L85.5525 95.8368C85.3302 95.7116 85.0786 95.6477 84.8235 95.6515C84.5684 95.6554 84.3189 95.7269 84.1005 95.8588Z" fill="white"/>
<path d="M84.5185 95.0064C84.5185 95.0064 88.814 81.3334 88.792 81.3334C88.77 81.3334 88.924 80.7229 89.683 81.0749L105.919 90.7219C105.919 90.7219 106.706 91.0464 106.552 91.7779C106.398 92.5094 102.35 105.159 102.35 105.159C102.266 105.28 102.146 105.37 102.008 105.418C101.869 105.465 101.719 105.467 101.58 105.423C101.085 105.269 84.898 95.7764 84.898 95.7764C84.7479 95.7215 84.6246 95.6109 84.554 95.4675C84.4833 95.3241 84.4706 95.1589 84.5185 95.0064Z" fill="#053855"/>
<path d="M89.056 82.3179L105.688 92.1024L102.185 103.696L85.338 94.1979L89.056 82.3179Z" fill="#68E1FD"/>
<path d="M83.468 97.3055L79.7225 99.6155C79.6553 99.6554 79.5996 99.7122 79.5609 99.7802C79.5222 99.8482 79.5018 99.925 79.5018 100.003C79.5018 100.081 79.5222 100.158 79.5609 100.226C79.5996 100.294 79.6553 100.351 79.7225 100.391L93.0985 108.091C93.2992 108.207 93.5268 108.268 93.7585 108.268C93.9902 108.268 94.2178 108.207 94.4185 108.091C95.282 107.59 96.767 106.694 97.68 106.138C97.7608 106.089 97.8276 106.02 97.874 105.938C97.9204 105.856 97.9448 105.763 97.9448 105.668C97.9448 105.574 97.9204 105.481 97.874 105.398C97.8276 105.316 97.7608 105.247 97.68 105.198L84.2215 97.3C84.1072 97.2325 83.9767 97.1973 83.844 97.1983C83.7113 97.1992 83.5813 97.2363 83.468 97.3055Z" fill="#68E1FD"/>
<path d="M83.644 103.619L88.3135 106.27C88.3856 106.311 88.4455 106.37 88.4873 106.442C88.529 106.513 88.551 106.595 88.551 106.677C88.551 106.76 88.529 106.841 88.4873 106.913C88.4455 106.985 88.3856 107.044 88.3135 107.084L85.5635 108.685C85.469 108.739 85.3618 108.768 85.2527 108.768C85.1437 108.768 85.0365 108.739 84.942 108.685L80.1625 105.935C80.1018 105.901 80.0512 105.852 80.016 105.792C79.9808 105.732 79.9623 105.663 79.9623 105.594C79.9623 105.524 79.9808 105.456 80.016 105.396C80.0512 105.336 80.1018 105.287 80.1625 105.253L83.0335 103.603C83.1281 103.553 83.234 103.528 83.3409 103.531C83.4479 103.534 83.5523 103.564 83.644 103.619Z" fill="#68E1FD"/>
<path opacity="0.1" d="M83.468 97.3055L79.7225 99.6155C79.6553 99.6554 79.5996 99.7122 79.5609 99.7802C79.5222 99.8482 79.5018 99.925 79.5018 100.003C79.5018 100.081 79.5222 100.158 79.5609 100.226C79.5996 100.294 79.6553 100.351 79.7225 100.391L93.0985 108.091C93.2992 108.207 93.5268 108.268 93.7585 108.268C93.9902 108.268 94.2178 108.207 94.4185 108.091C95.282 107.59 96.767 106.694 97.68 106.138C97.7608 106.089 97.8276 106.02 97.874 105.938C97.9204 105.856 97.9448 105.763 97.9448 105.668C97.9448 105.574 97.9204 105.481 97.874 105.398C97.8276 105.316 97.7608 105.247 97.68 105.198L84.2215 97.3C84.1072 97.2325 83.9767 97.1973 83.844 97.1983C83.7113 97.1992 83.5813 97.2363 83.468 97.3055Z" fill="#053855"/>
<path opacity="0.1" d="M83.644 103.619L88.3135 106.27C88.3856 106.311 88.4455 106.37 88.4873 106.442C88.529 106.513 88.551 106.595 88.551 106.677C88.551 106.76 88.529 106.841 88.4873 106.913C88.4455 106.985 88.3856 107.044 88.3135 107.084L85.5635 108.685C85.469 108.739 85.3618 108.768 85.2527 108.768C85.1437 108.768 85.0365 108.739 84.942 108.685L80.1625 105.935C80.1018 105.901 80.0512 105.852 80.016 105.792C79.9808 105.732 79.9623 105.663 79.9623 105.594C79.9623 105.524 79.9808 105.456 80.016 105.396C80.0512 105.336 80.1018 105.287 80.1625 105.253L83.0335 103.603C83.1281 103.553 83.234 103.528 83.3409 103.531C83.4479 103.534 83.5523 103.564 83.644 103.619Z" fill="#053855"/>
<path d="M65.5875 94.8523C63.3905 96.7435 61.7291 99.1788 60.7695 101.914C59.0755 106.584 63.305 114.223 63.305 114.223L69.905 109.02" fill="#FF8F6F"/>
<path d="M60.2965 120.306C60.2995 121.347 60.6285 122.361 61.2371 123.206C61.8457 124.05 62.7035 124.682 63.69 125.014C65.04 125.468 66.4652 125.655 67.8865 125.564C70.8015 125.377 73.3535 124.014 75.4985 122.133C75.0915 116.963 73.634 113.332 72.3855 111.6L64.4215 107.75C64.383 108.47 60.1865 113.332 60.2855 119.256C60.2891 119.626 60.2928 119.976 60.2965 120.306Z" fill="#3E2928"/>
<path d="M72.2425 102.706L63.8 102.294L62.3425 112.441C64.856 114.174 71.4945 113.129 73.0015 112.87C72.556 109.51 72.6 106.061 72.2425 102.706Z" fill="#FF8F6F"/>
<path d="M84.7 101.309L83.853 102.052C84.565 101.644 85.2995 101.277 86.053 100.952C86.5645 100.721 86.845 101.546 86.339 101.777L86.0805 101.898C86.3518 101.795 86.625 101.696 86.9 101.601C87.0094 101.563 87.1294 101.57 87.2335 101.621C87.3377 101.671 87.4175 101.761 87.4555 101.87C87.4934 101.98 87.4863 102.1 87.4358 102.204C87.3852 102.308 87.2954 102.388 87.186 102.426C86.4702 102.671 85.7671 102.952 85.0795 103.267C85.6978 103.07 86.3278 102.912 86.966 102.794C87.516 102.69 87.5655 103.564 87.021 103.663C86.2953 103.799 85.5817 103.992 84.887 104.241C85.1096 104.242 85.3306 104.28 85.5415 104.351C85.7945 104.417 86.4435 104.455 86.559 104.708C86.5871 104.772 86.5998 104.841 86.5961 104.911C86.5923 104.98 86.5721 105.048 86.5373 105.108C86.5024 105.168 86.4538 105.219 86.3954 105.256C86.3371 105.294 86.2706 105.317 86.2015 105.324L82.929 105.66C82.6043 105.846 82.3079 106.077 82.049 106.347C81.7181 105.954 81.3675 105.578 80.9985 105.22C80.6723 104.901 80.329 104.6 79.97 104.318C80.2926 104.01 80.6226 103.711 80.96 103.421C81.0315 103.322 81.2075 103.372 81.4055 103.207C82.5055 102.261 82.764 102.195 83.963 101.067C84.8485 100.187 85.217 100.858 84.7 101.309Z" fill="#FFB5A9"/>
<path d="M69.5145 96.6895C69.5145 96.6895 72.589 97.52 73.8375 99.511C74.6177 100.88 75.3049 102.301 75.8945 103.762L81.4825 102.459C81.4825 102.459 83.105 104.356 84.1995 105.715C84.1995 105.715 78.7435 109.565 75.8945 110.197C73.0455 110.83 70.0205 105.962 70.0205 105.962C70.0205 105.962 69.3935 107.975 69.5145 105.825" fill="#FF8F6F"/>
<path d="M71.764 103.157C70.8748 102.437 70.2012 101.486 69.817 100.407C69.4485 99.1535 69.9105 98.048 70.367 96.8765C70.832 95.7187 71.1032 94.4923 71.17 93.2465C71.2085 92.02 71.0655 90.799 70.983 89.578C70.9708 89.5255 70.9708 89.471 70.983 89.4185C70.576 88.038 69.729 86.872 68.068 86.7345C63.7725 86.3715 63.5305 91.1345 63.5635 93.0595C63.5965 94.9845 63.8 96.299 62.3755 97.113C60.951 97.927 59.9225 100.039 61.2755 101.755C62.6285 103.471 61.413 102.855 60.511 104.367C59.609 105.88 59.84 107.794 61.699 108.481C63.558 109.169 72.204 107.876 73.0015 107.073C73.283 106.752 73.4289 106.334 73.4085 105.907C73.2135 104.821 72.6288 103.843 71.764 103.157Z" fill="#007F68"/>
<path d="M73.3645 114.229C74.404 114.004 84.48 113.201 86.8285 116.704C89.177 120.208 76.3785 125.196 67.8865 125.598C59.3945 125.999 68.805 115.208 73.3645 114.229Z" fill="#3E2928"/>
<path d="M60.599 62.3308V79.6283L73.997 87.3668L84.909 80.8768V64.8058" fill="#3ACEB2"/>
<path d="M73.997 87.3668V70.2948L84.909 63.9038V80.8768L73.997 87.3668Z" fill="#4BE2C5"/>
<path d="M71.632 55.7969L60.599 62.3309L73.997 70.2949L84.909 63.9039L71.632 55.7969Z" fill="#52EFD1"/>
<path d="M62.348 65.1743V68.7548L72.3855 74.4858V70.9713L62.348 65.1743Z" fill="#7374B7"/>
<path d="M71.3721 72.5466C71.5144 72.5029 71.5734 72.2839 71.5039 72.0574C71.4344 71.8309 71.2627 71.6827 71.1204 71.7264C70.9781 71.77 70.9191 71.989 70.9886 72.2155C71.0582 72.442 71.2299 72.5903 71.3721 72.5466Z" fill="#F7931E"/>
<path d="M70.5096 72.0446C70.6519 72.001 70.7109 71.782 70.6414 71.5555C70.5719 71.329 70.4002 71.1807 70.2579 71.2244C70.1156 71.2681 70.0566 71.4871 70.1261 71.7136C70.1956 71.9401 70.3673 72.0883 70.5096 72.0446Z" fill="#D9E021"/>
<path d="M69.443 71.2354L63.239 67.6714" stroke="#F2F2F2" stroke-width="0.25375" stroke-miterlimit="10"/>
<path d="M62.1115 70.1958V73.7763L72.149 79.5018V75.9928L62.1115 70.1958Z" fill="#7374B7"/>
<path d="M71.1342 77.5649C71.2765 77.5213 71.3355 77.3022 71.266 77.0757C71.1965 76.8492 71.0248 76.701 70.8825 76.7447C70.7402 76.7883 70.6812 77.0073 70.7507 77.2339C70.8202 77.4604 70.9919 77.6086 71.1342 77.5649Z" fill="#F7931E"/>
<path d="M70.2772 77.0686C70.4195 77.0249 70.4785 76.8059 70.409 76.5794C70.3395 76.3529 70.1678 76.2047 70.0255 76.2483C69.8832 76.292 69.8242 76.511 69.8937 76.7375C69.9632 76.964 70.1349 77.1122 70.2772 77.0686Z" fill="#D9E021"/>
<path d="M69.2065 76.2569L63.0025 72.6929" stroke="#F2F2F2" stroke-width="0.25375" stroke-miterlimit="10"/>
<path d="M62.1115 75.2063V78.7868L72.149 84.5123V81.0033L62.1115 75.2063Z" fill="#7374B7"/>
<path d="M71.1302 82.5805C71.2725 82.5369 71.3315 82.3179 71.262 82.0913C71.1925 81.8648 71.0208 81.7166 70.8785 81.7603C70.7362 81.804 70.6772 82.023 70.7467 82.2495C70.8162 82.476 70.9879 82.6242 71.1302 82.5805Z" fill="#F7931E"/>
<path d="M70.2732 82.0788C70.4154 82.0352 70.4744 81.8161 70.4049 81.5896C70.3354 81.3631 70.1637 81.2149 70.0214 81.2586C69.8791 81.3022 69.8201 81.5213 69.8897 81.7478C69.9592 81.9743 70.1309 82.1225 70.2732 82.0788Z" fill="#D9E021"/>
<path d="M69.2065 81.2674L63.0025 77.7034" stroke="#F2F2F2" stroke-width="0.25375" stroke-miterlimit="10"/>
<path d="M84.909 69.8494L74.0465 76.2569L60.599 68.4414" stroke="#1B1464" stroke-width="0.25375" stroke-miterlimit="10"/>
<path d="M84.909 74.86L74.0465 81.2675L60.599 73.4575" stroke="#1B1464" stroke-width="0.25375" stroke-miterlimit="10"/>
<path d="M184.036 55.6043V83.2253C184.036 83.7692 183.892 84.3035 183.618 84.7735C183.345 85.2436 182.951 85.6327 182.478 85.9011C182.005 86.1695 181.469 86.3076 180.926 86.3013C180.382 86.295 179.849 86.1446 179.383 85.8654L153.131 70.2069C152.674 69.9345 152.295 69.548 152.032 69.0852C151.768 68.6224 151.63 68.0992 151.63 67.5669V40.4518C151.632 39.9124 151.776 39.383 152.047 38.9169C152.319 38.4507 152.708 38.0642 153.176 37.7961C153.644 37.528 154.175 37.3879 154.714 37.3897C155.254 37.3915 155.783 37.5352 156.25 37.8063L182.501 52.9643C182.965 53.2326 183.35 53.6173 183.619 54.0804C183.888 54.5434 184.032 55.0688 184.036 55.6043Z" fill="#A5DD73"/>
<path opacity="0.32" d="M144.375 144.429C148.901 141.415 153.505 138.511 158.081 135.58L151.58 130.833L126.406 141.344C129.448 142.939 133.556 145.925 137.879 148.967C140.024 147.427 142.175 145.892 144.375 144.429Z" fill="url(#paint3_linear_18_408)"/>
<path d="M160.551 117.793C160.513 117.637 160.444 117.491 160.347 117.364C160.169 117.148 159.958 116.962 159.72 116.814C156.525 114.652 152.097 114.064 148.72 116.17C147.95 116.654 146.801 117.749 147.257 118.783C147.521 119.382 148.324 119.734 148.907 119.976C150.765 120.712 152.706 121.219 154.688 121.483C155.403 121.604 156.129 121.725 156.849 121.791C157.347 121.839 157.85 121.761 158.31 121.564C158.771 121.367 159.174 121.058 159.484 120.664C159.968 120.026 160.776 118.733 160.551 117.793Z" fill="#754C24"/>
<path d="M147.164 118.31C147.164 118.31 150.079 120.95 155.117 120.565C160.155 120.18 160.545 117.815 160.545 117.815C160.545 117.815 159.242 134.513 158.554 134.799C157.867 135.085 155.293 136.328 154.05 136.421C152.807 136.515 148.88 134.942 148.781 134.507C148.682 134.073 147.164 118.31 147.164 118.31Z" fill="#FF8F6F"/>
<path d="M148.082 93.9779C147.928 93.6644 147.45 93.9394 147.609 94.2529C151.058 101.205 151.729 109.031 152.35 116.632C152.378 116.979 152.928 116.984 152.9 116.632C152.273 108.927 151.58 101.018 148.082 93.9779Z" fill="#007F68"/>
<path d="M147.642 94.0439C147.642 94.0439 148.605 97.6519 147.609 99.4559C146.614 101.26 145.794 101.617 146.982 103.856C148.17 106.094 151.349 106.397 151.558 108.113C151.767 109.829 150.04 97.1074 147.642 94.0439Z" fill="#007F68"/>
<path d="M158.669 100.556C156.014 106.11 154.516 112.147 154.269 118.299C154.269 118.728 154.924 118.722 154.94 118.299C155.174 112.264 156.631 106.34 159.225 100.886C159.434 100.506 158.856 100.165 158.669 100.556Z" fill="#007F68"/>
<path d="M159.143 102.316C159.143 101.953 159.06 101.216 159.099 100.605L158.714 100.847C157.405 104.032 155.447 111.512 154.864 113.8C155.661 112.084 158.923 111.847 159.88 109.4C160.302 108.361 160.321 107.202 159.935 106.149C159.463 104.924 159.195 103.629 159.143 102.316Z" fill="#007F68"/>
<path d="M165.297 52.4915L156.789 58.745L164.417 69.4535" stroke="#006837" stroke-width="4.06" stroke-miterlimit="10"/>
<path d="M172.827 57.0068L179.086 69.2388L170.28 73.3473" stroke="#006837" stroke-width="4.06" stroke-miterlimit="10"/>
<path d="M88.55 19.3484L138.138 47.5249" stroke="#00A99D" stroke-width="4.06" stroke-miterlimit="10"/>
<path d="M88.7315 26.7185L96.756 31.278" stroke="#D4145A" stroke-width="4.06" stroke-miterlimit="10"/>
<path d="M99.1375 32.8179L143.759 57.3479" stroke="#29ABE2" stroke-width="4.06" stroke-miterlimit="10"/>
<path d="M88.55 33.4338L105.688 42.8883" stroke="#F7931E" stroke-width="4.06" stroke-miterlimit="10"/>
<path d="M108.531 44.6814L146.107 64.7784" stroke="#00A99D" stroke-width="4.06" stroke-miterlimit="10"/>
<defs>
<linearGradient id="paint0_linear_18_408" x1="57.266" y1="127.203" x2="83.567" y2="106.672" gradientUnits="userSpaceOnUse">
<stop stop-color="white" stop-opacity="0"/>
<stop offset="0.98" stop-color="#0800BF"/>
</linearGradient>
<linearGradient id="paint1_linear_18_408" x1="45.7765" y1="99.2414" x2="71.3845" y2="73.1879" gradientUnits="userSpaceOnUse">
<stop stop-color="white" stop-opacity="0"/>
<stop offset="0.98" stop-color="#0800BF"/>
</linearGradient>
<linearGradient id="paint2_linear_18_408" x1="96.679" y1="122.495" x2="109.521" y2="83.9625" gradientUnits="userSpaceOnUse">
<stop stop-color="white" stop-opacity="0"/>
<stop offset="0.98" stop-color="#0800BF"/>
</linearGradient>
<linearGradient id="paint3_linear_18_408" x1="139.166" y1="140.937" x2="152.13" y2="130.487" gradientUnits="userSpaceOnUse">
<stop stop-color="white" stop-opacity="0"/>
<stop offset="0.98" stop-color="#0800BF"/>
</linearGradient>
</defs>
</svg>
